<?xml version="1.0" encoding="UTF-8"?>
<svg version="1.1" xmlns="http://www.w3.org/2000/svg" width="483" height="481">
<path d="M0 0 C0.84549408 -0.01535294 1.69098816 -0.03070587 2.56210327 -0.04652405 C34.87405199 -0.52161862 64.61924333 3.09438402 95.078125 14.30859375 C96.31433594 14.73914062 97.55054688 15.1696875 98.82421875 15.61328125 C101.96097739 16.74893669 105.01515901 17.98680036 108.078125 19.30859375 C108.74875977 19.59750488 109.41939453 19.88641602 110.11035156 20.18408203 C144.69546317 35.29135654 176.84703522 59.45203071 200.078125 89.30859375 C200.85414063 90.26765625 201.63015625 91.22671875 202.4296875 92.21484375 C227.89349438 124.22648668 242.97955546 161.43579273 249.828125 201.55859375 C250.03928955 202.79005127 250.2504541 204.02150879 250.46801758 205.2902832 C252.57449158 218.25526303 253.37163477 231.17403144 253.078125 244.30859375 C253.07296875 245.57574219 253.0678125 246.84289062 253.0625 248.1484375 C252.66255714 270.0339182 248.3432604 293.67046577 241.078125 314.30859375 C240.72161865 315.37279541 240.72161865 315.37279541 240.35791016 316.45849609 C228.34410132 352.29930666 207.5666411 386.16098087 180.078125 412.30859375 C179.45421875 412.90414063 178.8303125 413.4996875 178.1875 414.11328125 C169.95568312 421.75711121 161.07185256 428.59127857 152.078125 435.30859375 C151.16450195 435.99139404 151.16450195 435.99139404 150.23242188 436.68798828 C122.60534169 456.98009454 88.70877988 470.54923591 55.078125 476.30859375 C54.18303223 476.47504395 53.28793945 476.64149414 52.36572266 476.81298828 C44.13971942 478.29192893 35.91569145 479.04711866 27.578125 479.55859375 C26.86258453 479.60251251 26.14704407 479.64643127 25.40982056 479.69168091 C-3.0381017 481.35254906 -32.98832178 478.70434343 -59.94775391 469.00634766 C-62.1500079 468.22796008 -64.36738233 467.50765686 -66.58984375 466.7890625 C-97.58258166 456.60442827 -126.18225436 439.73438042 -149.921875 417.30859375 C-151.22982071 416.17830208 -152.54223748 415.05316064 -153.859375 413.93359375 C-162.43108461 406.43551241 -170.00217605 398.34189724 -176.921875 389.30859375 C-177.66695312 388.39207031 -178.41203125 387.47554688 -179.1796875 386.53125 C-208.99204841 349.28976378 -226.36639446 302.57657013 -228.484375 254.99609375 C-228.5261084 254.06748535 -228.5678418 253.13887695 -228.61083984 252.18212891 C-228.89507112 245.54967915 -229.10627412 238.94696199 -228.921875 232.30859375 C-228.90930664 231.674375 -228.89673828 231.04015625 -228.88378906 230.38671875 C-228.65047546 220.10187425 -227.59712783 210.04081051 -226.046875 199.87109375 C-225.88541992 198.80616699 -225.72396484 197.74124023 -225.55761719 196.64404297 C-223.59717401 184.3884181 -220.27894575 172.78188622 -216.234375 161.05859375 C-216.01500275 160.42241119 -215.79563049 159.78622864 -215.5696106 159.13076782 C-212.08081095 149.07047254 -208.13264847 139.58973573 -202.921875 130.30859375 C-202.18238967 128.94596525 -201.44415026 127.58266002 -200.70703125 126.21875 C-185.35851658 98.09900716 -164.48868739 71.83172406 -138.921875 52.30859375 C-138.3119873 51.83824707 -137.70209961 51.36790039 -137.07373047 50.88330078 C-101.491295 23.48612886 -61.31098429 7.44132256 -16.921875 1.30859375 C-15.65996338 1.13191162 -14.39805176 0.95522949 -13.09790039 0.77319336 C-8.7328286 0.23750132 -4.39454433 0.0780562 0 0 Z " fill="#FDFDFD" transform="translate(228.921875,-0.30859375)"/>
<path d="M0 0 C0.84549408 -0.01535294 1.69098816 -0.03070587 2.56210327 -0.04652405 C34.87405199 -0.52161862 64.61924333 3.09438402 95.078125 14.30859375 C96.31433594 14.73914062 97.55054688 15.1696875 98.82421875 15.61328125 C101.96097739 16.74893669 105.01515901 17.98680036 108.078125 19.30859375 C108.74875977 19.59750488 109.41939453 19.88641602 110.11035156 20.18408203 C144.69546317 35.29135654 176.84703522 59.45203071 200.078125 89.30859375 C200.85414063 90.26765625 201.63015625 91.22671875 202.4296875 92.21484375 C227.89349438 124.22648668 242.97955546 161.43579273 249.828125 201.55859375 C250.03928955 202.79005127 250.2504541 204.02150879 250.46801758 205.2902832 C252.57449158 218.25526303 253.37163477 231.17403144 253.078125 244.30859375 C253.07296875 245.57574219 253.0678125 246.84289062 253.0625 248.1484375 C252.66255714 270.0339182 248.3432604 293.67046577 241.078125 314.30859375 C240.72161865 315.37279541 240.72161865 315.37279541 240.35791016 316.45849609 C228.34410132 352.29930666 207.5666411 386.16098087 180.078125 412.30859375 C179.45421875 412.90414063 178.8303125 413.4996875 178.1875 414.11328125 C169.95568312 421.75711121 161.07185256 428.59127857 152.078125 435.30859375 C151.16450195 435.99139404 151.16450195 435.99139404 150.23242188 436.68798828 C122.60534169 456.98009454 88.70877988 470.54923591 55.078125 476.30859375 C54.18303223 476.47504395 53.28793945 476.64149414 52.36572266 476.81298828 C44.13971942 478.29192893 35.91569145 479.04711866 27.578125 479.55859375 C26.86258453 479.60251251 26.14704407 479.64643127 25.40982056 479.69168091 C-3.0381017 481.35254906 -32.98832178 478.70434343 -59.94775391 469.00634766 C-62.1500079 468.22796008 -64.36738233 467.50765686 -66.58984375 466.7890625 C-97.58258166 456.60442827 -126.18225436 439.73438042 -149.921875 417.30859375 C-151.22982071 416.17830208 -152.54223748 415.05316064 -153.859375 413.93359375 C-162.43108461 406.43551241 -170.00217605 398.34189724 -176.921875 389.30859375 C-177.66695312 388.39207031 -178.41203125 387.47554688 -179.1796875 386.53125 C-208.99204841 349.28976378 -226.36639446 302.57657013 -228.484375 254.99609375 C-228.5261084 254.06748535 -228.5678418 253.13887695 -228.61083984 252.18212891 C-228.89507112 245.54967915 -229.10627412 238.94696199 -228.921875 232.30859375 C-228.90930664 231.674375 -228.89673828 231.04015625 -228.88378906 230.38671875 C-228.65047546 220.10187425 -227.59712783 210.04081051 -226.046875 199.87109375 C-225.88541992 198.80616699 -225.72396484 197.74124023 -225.55761719 196.64404297 C-223.59717401 184.3884181 -220.27894575 172.78188622 -216.234375 161.05859375 C-216.01500275 160.42241119 -215.79563049 159.78622864 -215.5696106 159.13076782 C-212.08081095 149.07047254 -208.13264847 139.58973573 -202.921875 130.30859375 C-202.18238967 128.94596525 -201.44415026 127.58266002 -200.70703125 126.21875 C-185.35851658 98.09900716 -164.48868739 71.83172406 -138.921875 52.30859375 C-138.3119873 51.83824707 -137.70209961 51.36790039 -137.07373047 50.88330078 C-101.491295 23.48612886 -61.31098429 7.44132256 -16.921875 1.30859375 C-15.65996338 1.13191162 -14.39805176 0.95522949 -13.09790039 0.77319336 C-8.7328286 0.23750132 -4.39454433 0.0780562 0 0 Z M-5.55957031 28.33056641 C-56.04464272 29.00660346 -103.32546985 56.44859861 -138.921875 90.30859375 C-140.16130859 91.45134766 -140.16130859 91.45134766 -141.42578125 92.6171875 C-149.25085074 100.06544787 -155.59157442 108.5943375 -161.921875 117.30859375 C-162.3653125 117.91268066 -162.80875 118.51676758 -163.265625 119.13916016 C-194.04480926 161.49660786 -207.69817749 217.82383488 -199.8046875 269.71484375 C-190.36913167 321.98065682 -166.03318507 370.00741302 -123.921875 403.30859375 C-122.9215625 404.11425781 -121.92125 404.91992188 -120.890625 405.75 C-95.587078 425.90256677 -65.48041503 440.22375969 -33.921875 447.30859375 C-33.08366211 447.50324219 -32.24544922 447.69789063 -31.38183594 447.8984375 C21.94397909 459.76154139 79.57069625 447.69392595 125.64453125 419.14453125 C128.51301748 417.26711262 131.30560506 415.32460608 134.078125 413.30859375 C135.58052734 412.23158203 135.58052734 412.23158203 137.11328125 411.1328125 C142.96439413 406.84988663 148.46361975 402.32985098 153.7890625 397.41015625 C155.8006048 395.56338192 157.85814698 393.80871942 159.953125 392.05859375 C195.82205709 360.58324571 219.94497524 308.8826645 223.87744141 261.6809082 C227.55733334 199.84350268 211.1158243 144.17056685 170.078125 97.30859375 C169.01447574 96.0178733 167.95174867 94.72639133 166.890625 93.43359375 C163.64190641 89.65428215 159.87333628 86.52158512 156.078125 83.30859375 C154.78516507 82.16421994 153.49349934 81.01838223 152.203125 79.87109375 C150.83175562 78.67940282 149.45663994 77.4920116 148.078125 76.30859375 C147.37558594 75.70402344 146.67304688 75.09945312 145.94921875 74.4765625 C120.2593899 53.13357441 89.55272988 39.40116267 57.078125 32.30859375 C55.89476562 32.02371094 54.71140625 31.73882813 53.4921875 31.4453125 C40.16858477 28.34235425 26.83296608 28.12439857 13.203125 28.18359375 C12.49824951 28.18614166 11.79337402 28.18868958 11.06713867 28.1913147 C5.52456551 28.21478288 -0.01719093 28.28439701 -5.55957031 28.33056641 Z " fill="#2963B2" transform="translate(228.921875,-0.30859375)"/>
<path d="M0 0 C4.18582795 -0.0449724 8.37158352 -0.06836484 12.55761719 -0.08349609 C13.23703369 -0.08644684 13.9164502 -0.08939758 14.61645508 -0.09243774 C28.62217405 -0.13367333 42.09505574 0.57915016 55.80761719 3.54150391 C57.00281982 3.79778564 58.19802246 4.05406738 59.42944336 4.31811523 C71.54901385 7.06269781 82.9822904 11.26684565 94.43261719 16.04150391 C95.59792969 16.51845703 96.76324219 16.99541016 97.96386719 17.48681641 C114.32650615 24.82052171 129.48886734 33.76732668 143.43261719 45.04150391 C144.34140625 45.76466797 145.25019531 46.48783203 146.18652344 47.23291016 C151.58632173 51.57478879 156.65004219 56.03118725 161.43261719 61.04150391 C162.25761719 61.86650391 163.08261719 62.69150391 163.93261719 63.54150391 C165.17011719 64.77900391 165.17011719 64.77900391 166.43261719 66.04150391 C166.94526123 66.53529541 167.45790527 67.02908691 167.98608398 67.5378418 C172.30837072 71.74770089 176.10611789 76.17078734 179.74511719 80.97900391 C180.30416748 81.71554199 180.86321777 82.45208008 181.43920898 83.2109375 C186.92196523 90.53639394 191.83530528 98.13452982 196.43261719 106.04150391 C196.78662598 106.64639648 197.14063477 107.25128906 197.50537109 107.87451172 C203.62407317 118.4580574 208.21285733 129.58466521 212.43261719 141.04150391 C212.85438232 142.16951416 212.85438232 142.16951416 213.28466797 143.3203125 C221.28810444 165.12544547 223.89770141 187.34516499 223.87011719 210.41650391 C223.87044952 211.71687592 223.87044952 211.71687592 223.87078857 213.04351807 C223.84120219 223.88782974 223.12238518 234.31704274 221.43261719 245.04150391 C221.2504175 246.45247494 221.07121944 247.86384351 220.89746094 249.27587891 C215.79939187 283.26300605 199.41825738 317.72535883 177.43261719 344.04150391 C176.94760742 344.62657715 176.46259766 345.21165039 175.96289062 345.81445312 C166.9076936 356.69506289 157.51264596 366.18374079 146.43261719 375.04150391 C145.66433594 375.68861328 144.89605469 376.33572266 144.10449219 377.00244141 C100.09951029 413.67325966 42.65872889 427.18909962 -13.51464844 422.72802734 C-49.98677845 418.75571458 -86.28380385 403.97235815 -115.56738281 382.04150391 C-116.45296875 381.38698242 -116.45296875 381.38698242 -117.35644531 380.71923828 C-162.95876938 346.81883217 -192.21424126 296.03013369 -200.62255859 239.89746094 C-207.82727688 182.68352162 -191.53165203 126.13712606 -156.38769531 80.74975586 C-151.75223835 74.89676942 -146.72421563 69.43543249 -141.56738281 64.04150391 C-140.31441406 62.72666016 -140.31441406 62.72666016 -139.03613281 61.38525391 C-133.24273855 55.44519143 -127.12372522 50.12203315 -120.56738281 45.04150391 C-120.0251709 44.61756348 -119.48295898 44.19362305 -118.92431641 43.75683594 C-85.12972157 17.50199459 -43.01561141 0.50045537 0 0 Z M-66.56738281 31.04150391 C-67.88107366 31.62118314 -69.19488441 32.2005907 -70.50878906 32.77978516 C-100.68279365 46.30164514 -126.68256041 67.75451561 -146.56738281 94.04150391 C-147.28023437 94.97091797 -147.99308594 95.90033203 -148.72753906 96.85791016 C-165.55528524 119.30605664 -176.24220435 144.82254405 -182.56738281 172.04150391 C-182.73544434 172.73679199 -182.90350586 173.43208008 -183.07666016 174.1484375 C-192.59700243 215.15990157 -183.98968394 261.93255394 -165.56738281 299.04150391 C-165.25333496 299.68587402 -164.93928711 300.33024414 -164.61572266 300.99414062 C-143.94123917 343.06045114 -107.25187876 374.68270107 -64.56738281 393.04150391 C-63.52066406 393.49912109 -62.47394531 393.95673828 -61.39550781 394.42822266 C-47.41729956 400.16797915 -32.39990282 404.1622777 -17.36816406 405.71728516 C-14.56738281 406.04150391 -14.56738281 406.04150391 -11.56738281 407.04150391 C-8.68053896 407.17543632 -5.81880734 407.2533215 -2.93066406 407.27978516 C-2.06734467 407.28957901 -1.20402527 407.29937286 -0.31454468 407.3094635 C18.27941512 407.47666452 36.27712524 407.5469461 54.43261719 403.04150391 C55.32062012 402.82719727 56.20862305 402.61289062 57.12353516 402.39208984 C91.53030332 393.87869178 121.62189674 377.23905433 147.43261719 353.04150391 C148.17318359 352.35193604 148.17318359 352.35193604 148.92871094 351.6484375 C182.8654575 319.79571184 206.16158278 271.63841357 207.79298401 224.97731018 C207.92390936 220.04050515 207.97025388 215.10484542 207.99511719 210.16650391 C208.0041507 209.22535736 208.0131842 208.28421082 208.02249146 207.31454468 C208.1104979 193.47579573 206.51252346 180.52619794 203.43261719 167.04150391 C203.27279861 166.33667877 203.11298004 165.63185364 202.94831848 164.90567017 C191.75345182 116.1896703 159.65188076 72.49616063 117.55371094 45.92431641 C94.49272345 31.6692384 70.09558554 22.06768846 43.43261719 17.04150391 C42.17449219 16.79529297 40.91636719 16.54908203 39.62011719 16.29541016 C4.40040965 10.6957856 -34.27327045 16.2036685 -66.56738281 31.04150391 Z " fill="#F9FAFA" transform="translate(229.5673828125,27.95849609375)"/>
<path d="M0 0 C2.14237515 0.43211999 4.28900394 0.80826663 6.44287109 1.17822266 C38.94032119 7.15962127 70.47814744 23.66525623 95.18115234 45.43994141 C96.15310547 46.29072266 97.12505859 47.14150391 98.12646484 48.01806641 C116.52388309 64.35787867 131.02021438 83.53239264 142.18115234 105.43994141 C142.50132324 106.05192383 142.82149414 106.66390625 143.15136719 107.29443359 C152.42623546 125.13261924 157.90889674 144.67994381 161.18115234 164.43994141 C161.35477295 165.31932373 161.52839355 166.19870605 161.70727539 167.10473633 C162.31584587 171.38793124 162.40094455 175.59889179 162.45458984 179.92041016 C162.47358589 181.29646423 162.47358589 181.29646423 162.4929657 182.70031738 C163.12811319 239.87021733 146.04380268 290.30081456 106.00683594 332.01489258 C77.30877563 361.20774703 39.49707281 380.47319111 -0.81884766 387.43994141 C-1.77355957 387.61654297 -2.72827148 387.79314453 -3.71191406 387.97509766 C-13.5404447 389.61052804 -23.21724294 389.74630134 -33.16015625 389.70068359 C-35.94634622 389.68993176 -38.73189549 389.70065443 -41.51806641 389.71337891 C-50.80887756 389.72150246 -59.71123347 389.48510562 -68.81884766 387.43994141 C-69.68864258 387.2577002 -70.5584375 387.07545898 -71.45458984 386.88769531 C-101.87800238 380.32925235 -130.01658753 368.3809709 -154.81884766 349.43994141 C-156.12595703 348.46927734 -156.12595703 348.46927734 -157.45947266 347.47900391 C-171.49913592 336.58319162 -184.86854864 323.18112513 -194.81884766 308.43994141 C-195.28307129 307.76060547 -195.74729492 307.08126953 -196.22558594 306.38134766 C-214.51613003 279.34056926 -225.56401444 249.79388995 -229.81884766 217.43994141 C-229.99319336 216.34939453 -230.16753906 215.25884766 -230.34716797 214.13525391 C-230.85115943 210.18679903 -230.9974169 206.30371638 -231.02197266 202.33056641 C-231.02907761 201.57062378 -231.03618256 200.81068115 -231.04350281 200.02770996 C-231.27275155 168.28981056 -231.27275155 168.28981056 -227.81884766 154.43994141 C-227.5877832 153.48796875 -227.35671875 152.53599609 -227.11865234 151.55517578 C-218.93332341 118.54616377 -204.29322321 89.93431118 -181.81884766 64.43994141 C-181.15884766 63.66908203 -180.49884766 62.89822266 -179.81884766 62.10400391 C-137.29154919 12.55210703 -64.04106375 -13.0151125 0 0 Z M-75.81884766 12.43994141 C-77.14988525 12.76140137 -77.14988525 12.76140137 -78.5078125 13.08935547 C-127.08348543 25.03120099 -169.098326 56.70789233 -195.06884766 99.25244141 C-203.69018504 113.79330459 -210.47972108 129.09375121 -214.81884766 145.43994141 C-215.09486816 146.46982178 -215.09486816 146.46982178 -215.37646484 147.52050781 C-227.52878113 193.70143054 -220.328794 241.70228721 -197.81884766 283.43994141 C-197.49948242 284.04386719 -197.18011719 284.64779297 -196.85107422 285.27001953 C-189.95839867 298.24364437 -181.29668967 309.1369254 -171.26416016 319.78369141 C-168.81884766 322.43994141 -168.81884766 322.43994141 -166.70947266 325.08837891 C-163.80543214 328.70042931 -160.38177885 331.49303103 -156.81884766 334.43994141 C-155.29904297 335.69871094 -155.29904297 335.69871094 -153.74853516 336.98291016 C-130.02150756 356.29392083 -101.74653525 370.00816848 -71.81884766 376.43994141 C-70.70848145 376.68550781 -70.70848145 376.68550781 -69.57568359 376.93603516 C-23.76710634 386.63054823 25.89720435 376.14507296 65.18115234 351.43994141 C70.00037568 348.30096976 74.61199328 344.93066541 79.18115234 341.43994141 C80.06416016 340.78123047 80.94716797 340.12251953 81.85693359 339.44384766 C114.211864 314.25708089 140.35310829 275.10374074 148.18115234 234.43994141 C148.30828613 233.78541992 148.43541992 233.13089844 148.56640625 232.45654297 C158.28164364 181.83684545 149.0694235 131.44931636 120.18115234 88.43994141 C113.31957782 78.74560676 105.36552262 70.01957957 97.18115234 61.43994141 C96.54177734 60.73611328 95.90240234 60.03228516 95.24365234 59.30712891 C79.31658436 42.31351619 57.48774869 29.96237213 36.12255859 21.2421875 C34.43997596 20.54689493 32.77713344 19.80419305 31.11865234 19.05322266 C14.80817711 12.0281946 -4.5909382 8.38354538 -22.32275391 8.20166016 C-23.51113609 8.18696938 -23.51113609 8.18696938 -24.723526 8.17198181 C-42.11957074 8.00122922 -58.84620798 8.16013935 -75.81884766 12.43994141 Z " fill="#F9FAFB" transform="translate(274.81884765625,45.56005859375)"/>
<path d="M0 0 C2.04679606 0.85628684 3.76180853 1.81725166 5.6015625 3.05737305 C6.29765625 3.52328857 6.99375 3.9892041 7.7109375 4.46923828 C8.45859375 4.97914307 9.20625 5.48904785 9.9765625 6.0144043 C11.15992188 6.81309937 11.15992188 6.81309937 12.3671875 7.62792969 C27.77698822 18.06922056 42.92214098 28.88153986 57.9765625 39.8269043 C58.09902344 38.73249023 58.22148437 37.63807617 58.34765625 36.51049805 C58.9765625 32.8269043 58.9765625 32.8269043 61.0390625 29.8894043 C64.32560135 27.58183446 66.02417938 27.24126686 69.9140625 27.1628418 C73.44902228 28.30099172 74.80930259 29.81076962 76.9765625 32.8269043 C77.43516397 36.4414972 77.18362158 40.00623276 77.0390625 43.6394043 C76.96443048 50.99733971 76.96443048 50.99733971 79.88671875 57.48706055 C82.43471054 59.09651148 85.01422897 60.39859566 87.74755859 61.66040039 C92.76305991 64.2851611 97.29524281 67.75870499 101.9140625 71.0144043 C102.92098145 71.70518066 103.92790039 72.39595703 104.96533203 73.10766602 C117.25892736 81.59801399 117.25892736 81.59801399 118.640625 85.8894043 C118.56275155 89.75192763 118.1843516 91.51522065 115.9765625 94.8269043 C112.22847791 97.32562736 109.31186435 97.69377477 104.9765625 96.8269043 C101.73142577 95.16499211 98.95856705 93.01694761 96.1015625 90.7644043 C94.60481888 89.6268269 93.1074186 88.49011299 91.609375 87.35424805 C90.08054687 86.19022461 88.55171875 85.02620117 86.9765625 83.8269043 C83.6765625 81.5169043 80.3765625 79.2069043 76.9765625 76.8269043 C76.9765625 108.5069043 76.9765625 140.1869043 76.9765625 172.8269043 C71.0365625 172.8269043 65.0965625 172.8269043 58.9765625 172.8269043 C59.00844666 171.47990448 59.04033081 170.13290466 59.07318115 168.74508667 C59.36149918 156.00552528 59.54290718 143.26824663 59.62165451 130.5256176 C59.6655204 123.9748714 59.74604719 117.42899365 59.91259766 110.88012695 C60.07218657 104.55050495 60.13254296 98.22675976 60.12628937 91.89520645 C60.14093453 89.489221 60.19039112 87.08317029 60.27635956 84.67867661 C61.03419103 71.83926282 61.03419103 71.83926282 56.05799866 60.48999786 C51.35664809 56.26832193 46.13022262 53.20500769 40.56270599 50.26904678 C36.35394125 47.92206238 32.57069168 45.03199557 28.7265625 42.1394043 C14.51051873 29.8977677 14.51051873 29.8977677 -0.9777832 23.04443359 C-3.20712374 23.89716499 -4.83677813 24.92607519 -6.75390625 26.34643555 C-7.82137085 27.12869507 -7.82137085 27.12869507 -8.91040039 27.92675781 C-9.66957764 28.49193115 -10.42875488 29.05710449 -11.2109375 29.6394043 C-12.83793929 30.83293421 -14.46555783 32.02562378 -16.09375 33.2175293 C-17.3297998 34.12535156 -17.3297998 34.12535156 -18.59082031 35.05151367 C-22.22703658 37.70532386 -25.90306272 40.3009138 -29.5859375 42.8894043 C-30.27212158 43.3723999 -30.95830566 43.85539551 -31.6652832 44.35302734 C-33.06099635 45.33532878 -34.45691207 46.31734245 -35.85302734 47.29907227 C-38.15784994 48.92152219 -40.46008796 50.54758618 -42.76171875 52.17456055 C-43.53765381 52.72297607 -44.31358887 53.2713916 -45.11303711 53.83642578 C-46.60227458 54.88912147 -48.09137639 55.94200911 -49.58032227 56.99511719 C-50.58470337 57.70462524 -50.58470337 57.70462524 -51.609375 58.4284668 C-52.1976709 58.84435059 -52.7859668 59.26023438 -53.39208984 59.6887207 C-54.9214541 60.75575096 -56.47182352 61.79249497 -58.0234375 62.8269043 C-58.48488388 64.85849557 -58.48488388 64.85849557 -58.42216492 67.24343872 C-58.43470306 68.171745 -58.44724121 69.10005127 -58.4601593 70.05648804 C-58.45872421 71.07787872 -58.45728912 72.09926941 -58.45581055 73.15161133 C-58.4660022 74.22479614 -58.47619385 75.29798096 -58.48669434 76.40368652 C-58.51697807 79.96408199 -58.52611386 83.52420912 -58.53515625 87.0847168 C-58.55199151 89.54809474 -58.57014016 92.01146403 -58.58955383 94.474823 C-58.63718502 100.9685394 -58.66690951 107.46222074 -58.69299316 113.95605469 C-58.7227326 120.57843961 -58.76928554 127.20070356 -58.81445312 133.82299805 C-58.90063548 146.82423702 -58.96791424 159.82550079 -59.0234375 172.8269043 C-65.2934375 172.8269043 -71.5634375 172.8269043 -78.0234375 172.8269043 C-78.0234375 141.4769043 -78.0234375 110.1269043 -78.0234375 77.8269043 C-89.16749529 85.44161531 -89.16749529 85.44161531 -100.0234375 93.4519043 C-104.51925863 96.73263863 -107.41444925 98.21373107 -113.0234375 97.8269043 C-115.88337228 96.06226369 -117.52126599 94.83124733 -119.0234375 91.8269043 C-119.3984375 88.5144043 -119.3984375 88.5144043 -119.0234375 84.8269043 C-115.60354339 80.90669234 -111.60022355 77.85531022 -107.3984375 74.8269043 C-106.76470215 74.36558105 -106.1309668 73.90425781 -105.47802734 73.42895508 C-99.1059377 68.82323378 -92.61473494 64.39029957 -86.10693359 59.97924805 C-85.32914551 59.45202148 -84.55135742 58.92479492 -83.75 58.3815918 C-83.05471191 57.91221191 -82.35942383 57.44283203 -81.64306641 56.95922852 C-80.06316046 55.92474839 -80.06316046 55.92474839 -79.0234375 54.8269043 C-78.92691139 53.33580031 -78.89144866 51.84063561 -78.8828125 50.34643555 C-78.86347656 49.42926758 -78.84414062 48.51209961 -78.82421875 47.56713867 C-78.7907069 45.63505163 -78.77216212 43.70263953 -78.76953125 41.77026367 C-78.65044429 37.2794319 -78.54761411 33.82774367 -75.7265625 30.19018555 C-72.12273577 27.03944108 -72.12273577 27.03944108 -69.0234375 27.2019043 C-65.03238838 27.50368495 -62.82927407 28.93604238 -60.0234375 31.8269043 C-58.66904082 34.53569765 -58.95842299 36.83623697 -59.0234375 39.8269043 C-50.20113627 33.79496752 -41.41466438 27.71750265 -32.69287109 21.54101562 C-26.02234921 16.81854251 -19.32528018 12.1344338 -12.62207031 7.45849609 C-11.81995117 6.89815674 -11.01783203 6.33781738 -10.19140625 5.76049805 C-9.12829224 5.01884399 -9.12829224 5.01884399 -8.04370117 4.26220703 C-5.97352278 2.84068984 -5.97352278 2.84068984 -4.01293945 1.08105469 C-2.0234375 -0.1730957 -2.0234375 -0.1730957 0 0 Z " fill="#2976BE" transform="translate(243.0234375,84.173095703125)"/>
<path d="M0 0 C2.59281971 0.01611053 5.18408166 0.00001795 7.77685547 -0.01904297 C19.47067286 -0.03374046 30.61375687 1.21238066 42.09326172 3.39111328 C43.60484863 3.6652002 43.60484863 3.6652002 45.14697266 3.94482422 C83.04682294 11.19535825 116.19066794 31.40027959 144.09326172 57.39111328 C145.20121094 58.41785156 145.20121094 58.41785156 146.33154297 59.46533203 C179.63701077 91.46934283 201.98154098 140.75512049 203.18359375 186.85546875 C203.22709 190.65964075 203.22975534 194.46172616 203.21826172 198.26611328 C203.22212891 199.53841797 203.22599609 200.81072266 203.22998047 202.12158203 C203.2173867 214.45088448 202.41256504 226.35906089 199.96826172 238.45361328 C199.75089355 239.52925537 199.53352539 240.60489746 199.30957031 241.71313477 C197.13504324 251.96371898 193.98532559 261.67364512 190.09326172 271.39111328 C189.67173828 272.44733887 189.67173828 272.44733887 189.24169922 273.52490234 C169.40091802 322.45467935 131.58130896 361.97620646 83.08740234 383.27197266 C80.40075174 384.37324461 77.68835156 385.38366919 74.95263672 386.35595703 C72.02800601 387.36867932 72.02800601 387.36867932 69.05029297 388.79736328 C39.82648289 401.44189817 1.12536626 403.01841393 -29.90673828 397.39111328 C-30.77041016 397.23513672 -31.63408203 397.07916016 -32.52392578 396.91845703 C-69.39114271 390.02500234 -102.57244903 373.955909 -130.90673828 349.39111328 C-131.44830566 348.92398926 -131.98987305 348.45686523 -132.54785156 347.97558594 C-138.48824154 342.81726935 -143.93108921 337.47920421 -148.90673828 331.39111328 C-149.32503906 330.89579102 -149.74333984 330.40046875 -150.17431641 329.89013672 C-185.42803527 288.13973114 -200.55084236 236.5772353 -197.90673828 182.39111328 C-197.16860524 174.27645074 -195.66232711 166.34036568 -193.90673828 158.39111328 C-193.69774902 157.4247998 -193.48875977 156.45848633 -193.2734375 155.46289062 C-190.06800225 141.03002825 -185.28945919 127.71348895 -178.90673828 114.39111328 C-178.32666016 113.16932373 -178.32666016 113.16932373 -177.73486328 111.92285156 C-163.96688703 83.32561755 -142.47878023 58.12232072 -116.90673828 39.39111328 C-115.31925781 38.22128906 -115.31925781 38.22128906 -113.69970703 37.02783203 C-80.70188777 13.46958622 -40.61726707 -0.29860008 0 0 Z M-74.90673828 19.39111328 C-76.22042913 19.97079251 -77.53423988 20.55020008 -78.84814453 21.12939453 C-109.02214912 34.65125452 -135.02191588 56.10412498 -154.90673828 82.39111328 C-155.61958984 83.32052734 -156.33244141 84.24994141 -157.06689453 85.20751953 C-173.89464071 107.65566602 -184.58155981 133.17215342 -190.90673828 160.39111328 C-191.0747998 161.08640137 -191.24286133 161.78168945 -191.41601562 162.49804688 C-200.9363579 203.50951094 -192.32903941 250.28216331 -173.90673828 287.39111328 C-173.59269043 288.0354834 -173.27864258 288.67985352 -172.95507812 289.34375 C-152.28059464 331.41006051 -115.59123423 363.03231044 -72.90673828 381.39111328 C-71.86001953 381.84873047 -70.81330078 382.30634766 -69.73486328 382.77783203 C-55.75665503 388.51758853 -40.73925829 392.51188707 -25.70751953 394.06689453 C-22.90673828 394.39111328 -22.90673828 394.39111328 -19.90673828 395.39111328 C-17.01989443 395.52504569 -14.15816281 395.60293087 -11.27001953 395.62939453 C-10.40670013 395.63918839 -9.54338074 395.64898224 -8.65390015 395.65907288 C9.94005965 395.82627389 27.93776977 395.89655548 46.09326172 391.39111328 C46.98126465 391.17680664 47.86926758 390.9625 48.78417969 390.74169922 C83.19094785 382.22830115 113.28254127 365.5886637 139.09326172 341.39111328 C139.83382812 340.70154541 139.83382812 340.70154541 140.58935547 339.99804688 C174.52610203 308.14532122 197.82222731 259.98802294 199.45362854 213.32691956 C199.58455389 208.39011452 199.63089841 203.4544548 199.65576172 198.51611328 C199.66479523 197.57496674 199.67382874 196.63382019 199.68313599 195.66415405 C199.77114243 181.82540511 198.17316799 168.87580732 195.09326172 155.39111328 C194.93344315 154.68628815 194.77362457 153.98146301 194.60896301 153.25527954 C183.41409635 104.53927968 151.31252529 60.84577001 109.21435547 34.27392578 C86.15336798 20.01884777 61.75623007 10.41729784 35.09326172 5.39111328 C33.83513672 5.14490234 32.57701172 4.89869141 31.28076172 4.64501953 C-3.93894582 -0.95460502 -42.61262592 4.55327787 -74.90673828 19.39111328 Z " fill="#37449C" transform="translate(237.90673828125,39.60888671875)"/>
<path d="M0 0 C0.8435202 0.00237671 1.68704041 0.00475342 2.55612183 0.00720215 C16.27756468 0.06743434 29.3910636 1.11629939 42.75 4.4375 C43.98878906 4.72625 45.22757813 5.015 46.50390625 5.3125 C87.83626743 16.04071426 124.53710203 41.07845979 149.75 75.4375 C150.35303955 76.25734375 150.35303955 76.25734375 150.96826172 77.09375 C163.97635715 94.94568467 174.2159887 114.97696792 179.75 136.4375 C179.91838379 137.08106445 180.08676758 137.72462891 180.26025391 138.38769531 C180.81352775 140.52582133 181.34802712 142.66774707 181.875 144.8125 C182.03395752 145.44768555 182.19291504 146.08287109 182.35668945 146.73730469 C185.24367118 159.02712055 186.09195128 171.28789093 186 183.875 C185.99656586 184.55336914 185.99313171 185.23173828 185.98959351 185.93066406 C185.93048409 195.91384792 185.62249975 205.6044254 183.75 215.4375 C183.59934082 216.27587402 183.44868164 217.11424805 183.29345703 217.97802734 C176.71995662 253.97757188 159.97431488 286.92861353 134.75 313.4375 C134.23953125 313.9752002 133.7290625 314.51290039 133.203125 315.06689453 C114.01871988 335.14216426 90.66961281 350.84626049 64.40625 360.11328125 C60.76469909 361.38063814 60.76469909 361.38063814 57.39453125 362.9453125 C29.20607789 374.48656564 -8.81693121 375.08406843 -38.25 368.4375 C-39.09965332 368.24945801 -39.94930664 368.06141602 -40.82470703 367.86767578 C-72.68280289 360.56940232 -103.07066752 345.52965918 -126.734375 322.8125 C-129.2062582 320.41219422 -129.2062582 320.41219422 -131.87890625 318.34375 C-135.49003347 315.44057029 -138.267554 311.96643708 -141.25 308.4375 C-142.00410156 307.58285156 -142.75820312 306.72820312 -143.53515625 305.84765625 C-154.61745864 293.04417218 -163.19191636 278.79734757 -170.25 263.4375 C-171.06597656 261.66246094 -171.06597656 261.66246094 -171.8984375 259.8515625 C-191.60317456 215.34086204 -192.65223977 165.02531712 -175.38012695 119.54394531 C-166.10326507 96.06449405 -152.48318531 75.85066456 -135.25 57.4375 C-133.94289063 56.03177734 -133.94289063 56.03177734 -132.609375 54.59765625 C-110.24671682 31.09837558 -79.51106798 14.09140459 -48.25 5.875 C-47.20392578 5.58206055 -47.20392578 5.58206055 -46.13671875 5.28320312 C-30.94208479 1.25491934 -15.66751834 -0.11734077 0 0 Z M-35.25 6.4375 C-35.97123047 6.57140137 -36.69246094 6.70530273 -37.43554688 6.84326172 C-84.83779592 15.88740036 -126.44764798 45.68157579 -153.43994141 85.17871094 C-155.87265116 88.84262929 -158.08409035 92.61135796 -160.25 96.4375 C-160.60513672 97.04964355 -160.96027344 97.66178711 -161.32617188 98.29248047 C-172.19860385 117.14022757 -178.35902246 137.10001879 -182.25 158.4375 C-182.42885742 159.35748779 -182.60771484 160.27747559 -182.79199219 161.2253418 C-183.33709948 165.04835706 -183.4489624 168.82201098 -183.48828125 172.67578125 C-183.4980751 173.46544281 -183.50786896 174.25510437 -183.51795959 175.06869507 C-183.83858387 207.6861797 -179.62041492 236.88387897 -165.25 266.4375 C-164.74992432 267.4903418 -164.74992432 267.4903418 -164.23974609 268.56445312 C-143.78639671 311.27207573 -104.13566036 343.62669817 -59.8125 359.25 C-12.24398432 373.94257549 38.37502298 371.50962127 83.04956055 348.57446289 C126.14140139 325.61909979 159.51816107 287.90104449 174.01220703 240.90039062 C175.24075394 236.79927177 176.43842896 232.69360798 177.5625 228.5625 C177.85519775 227.49491455 177.85519775 227.49491455 178.15380859 226.40576172 C181.38798849 213.84869432 182.07549778 201.48900037 182.01074219 188.59765625 C182.0000431 186.07267082 182.01069011 183.54840122 182.0234375 181.0234375 C182.03734636 166.94904673 181.00332241 153.29369691 177.125 139.6875 C176.86630127 138.76557861 176.60760254 137.84365723 176.34106445 136.89379883 C162.25591316 88.34418548 130.11040228 48.96645614 85.96337891 24.60424805 C48.94068873 4.68488119 6.00794439 -1.5481889 -35.25 6.4375 Z " fill="#399CD5" transform="translate(241.25,53.5625)"/>
<path d="M0 0 C2.59281971 0.01611053 5.18408166 0.00001795 7.77685547 -0.01904297 C19.47067286 -0.03374046 30.61375687 1.21238066 42.09326172 3.39111328 C43.60484863 3.6652002 43.60484863 3.6652002 45.14697266 3.94482422 C83.04682294 11.19535825 116.19066794 31.40027959 144.09326172 57.39111328 C145.20121094 58.41785156 145.20121094 58.41785156 146.33154297 59.46533203 C179.63701077 91.46934283 201.98154098 140.75512049 203.18359375 186.85546875 C203.22709 190.65964075 203.22975534 194.46172616 203.21826172 198.26611328 C203.22212891 199.53841797 203.22599609 200.81072266 203.22998047 202.12158203 C203.2173867 214.45088448 202.41256504 226.35906089 199.96826172 238.45361328 C199.75089355 239.52925537 199.53352539 240.60489746 199.30957031 241.71313477 C197.13504324 251.96371898 193.98532559 261.67364512 190.09326172 271.39111328 C189.67173828 272.44733887 189.67173828 272.44733887 189.24169922 273.52490234 C181.75375822 291.9910746 172.1944039 312.91977396 157.09326172 326.39111328 C154.28076172 327.20361328 154.28076172 327.20361328 152.09326172 327.39111328 C152.87701172 326.35986328 153.66076172 325.32861328 154.46826172 324.26611328 C155.67781363 322.64202011 156.88596108 321.01688067 158.09326172 319.39111328 C158.84349609 318.39595703 159.59373047 317.40080078 160.36669922 316.37548828 C186.04732949 281.80857737 198.46910073 241.30251978 198.65576172 198.51611328 C198.66904007 197.10507324 198.66904007 197.10507324 198.68258667 195.66552734 C198.77089442 181.8261176 197.17332281 168.87648517 194.09326172 155.39111328 C193.93344315 154.68628815 193.77362457 153.98146301 193.60896301 153.25527954 C182.50933813 104.95373738 150.97299183 61.62700582 109.21044922 35.27001953 C86.14776576 21.0198161 61.75563063 11.41718484 35.09326172 6.39111328 C33.83513672 6.14490234 32.57701172 5.89869141 31.28076172 5.64501953 C-3.93894582 0.04539498 -42.61262592 5.55327787 -74.90673828 20.39111328 C-76.22042913 20.97079251 -77.53423988 21.55020008 -78.84814453 22.12939453 C-96.38981964 29.9903357 -113.16117726 40.26469602 -126.77392578 53.95751953 C-129.58563141 55.84743888 -131.59152845 55.65085194 -134.90673828 55.39111328 C-131.89779333 51.30071378 -128.47356908 48.21091612 -124.46923828 45.14111328 C-123.85161621 44.66367676 -123.23399414 44.18624023 -122.59765625 43.69433594 C-87.24809959 16.58910048 -44.90896174 -0.33015071 0 0 Z " fill="#459AD1" transform="translate(237.90673828125,39.60888671875)"/>
<path d="M0 0 C-1 3 -1 3 -2.78735352 4.17578125 C-3.56006592 4.55089844 -4.33277832 4.92601563 -5.12890625 5.3125 C-6.42248047 5.95735352 -6.42248047 5.95735352 -7.7421875 6.61523438 C-8.67289062 7.07220703 -9.60359375 7.52917969 -10.5625 8 C-42.26441597 24.10904685 -68.45811684 49.01175599 -86 80 C-86.35513672 80.61214355 -86.71027344 81.22428711 -87.07617188 81.85498047 C-97.94860385 100.70272757 -104.10902246 120.66251879 -108 142 C-108.17885742 142.91998779 -108.35771484 143.83997559 -108.54199219 144.7878418 C-109.08709948 148.61085706 -109.1989624 152.38451098 -109.23828125 156.23828125 C-109.2480751 157.02794281 -109.25786896 157.81760437 -109.26795959 158.63119507 C-109.58858387 191.2486797 -105.37041492 220.44637897 -91 250 C-90.66661621 250.70189453 -90.33323242 251.40378906 -89.98974609 252.12695312 C-70.20286595 293.44295443 -32.32412155 325.23837546 10.55004883 340.63867188 C39.02236566 350.25980383 68.40362773 353.70512904 98.23046875 349.51171875 C103.80183264 348.75539889 109.39174928 348.37063222 115 348 C115 348.66 115 349.32 115 350 C92.20885449 359.2852815 58.62129091 357.33415416 35 352 C34.15034668 351.81195801 33.30069336 351.62391602 32.42529297 351.43017578 C0.56719711 344.13190232 -29.82066752 329.09215918 -53.484375 306.375 C-55.9562582 303.97469422 -55.9562582 303.97469422 -58.62890625 301.90625 C-62.24003347 299.00307029 -65.017554 295.52893708 -68 292 C-68.75410156 291.14535156 -69.50820312 290.29070312 -70.28515625 289.41015625 C-81.36745864 276.60667218 -89.94191636 262.35984757 -97 247 C-97.54398438 245.81664062 -98.08796875 244.63328125 -98.6484375 243.4140625 C-118.35317456 198.90336204 -119.40223977 148.58781712 -102.13012695 103.10644531 C-92.85326507 79.62699405 -79.23318531 59.41316456 -62 41 C-60.69289063 39.59427734 -60.69289063 39.59427734 -59.359375 38.16015625 C-46.55203032 24.70185515 -19.84881341 0 0 0 Z " fill="#355DAD" transform="translate(168,70)"/>
<path d="M0 0 C0.71636627 -0.00428513 1.43273254 -0.00857025 2.17080688 -0.01298523 C3.6854751 -0.01872394 5.20017088 -0.01923215 6.71484375 -0.01489258 C9.02392057 -0.01173943 11.3317072 -0.03517144 13.640625 -0.06054688 C15.11458172 -0.06282073 16.58854188 -0.06352296 18.0625 -0.0625 C19.09242569 -0.07631462 19.09242569 -0.07631462 20.14315796 -0.09040833 C24.49897993 -0.04870759 27.25954013 0.54658202 30.6640625 3.30078125 C34.1620266 7.49462554 34.06035531 11.6543463 33.95703125 16.8828125 C33.95278641 17.69699142 33.94854156 18.51117035 33.94416809 19.35002136 C33.92744003 21.93811793 33.88979962 24.52542196 33.8515625 27.11328125 C33.83650803 28.87303559 33.82282096 30.6328022 33.81054688 32.39257812 C33.77755586 36.69561562 33.7258149 40.99806428 33.6640625 45.30078125 C30.3640625 45.30078125 27.0640625 45.30078125 23.6640625 45.30078125 C23.6640625 41.34078125 23.6640625 37.38078125 23.6640625 33.30078125 C14.4240625 33.30078125 5.1840625 33.30078125 -4.3359375 33.30078125 C-4.3359375 37.26078125 -4.3359375 41.22078125 -4.3359375 45.30078125 C-7.6359375 45.30078125 -10.9359375 45.30078125 -14.3359375 45.30078125 C-14.43514299 40.14133252 -14.50756396 34.98244436 -14.55566406 29.82226562 C-14.5757246 28.06858646 -14.60298001 26.31497372 -14.63769531 24.56152344 C-14.68646052 22.03433807 -14.70896142 19.50804034 -14.7265625 16.98046875 C-14.74720764 16.20210663 -14.76785278 15.42374451 -14.78912354 14.62179565 C-14.79125923 9.38857222 -13.80749946 6.4454971 -10.3359375 2.30078125 C-6.75051269 -0.08950196 -4.14255184 -0.00546654 0 0 Z " fill="#2E7BC1" transform="translate(348.3359375,275.69921875)"/>
<path d="M0 0 C1.32115059 0.00636726 1.32115059 0.00636726 2.66899109 0.01286316 C5.47104985 0.02960231 8.27237884 0.06724545 11.07421875 0.10546875 C12.97850521 0.12052176 14.88280299 0.13420909 16.78710938 0.14648438 C21.44559197 0.17949021 26.1035318 0.23123946 30.76171875 0.29296875 C30.76171875 3.92296875 30.76171875 7.55296875 30.76171875 11.29296875 C11.95171875 11.78796875 11.95171875 11.78796875 -7.23828125 12.29296875 C-7.23828125 13.94296875 -7.23828125 15.59296875 -7.23828125 17.29296875 C-6.36091309 17.30755127 -5.48354492 17.32213379 -4.57958984 17.3371582 C-1.30278804 17.39846555 1.97320819 17.47266208 5.24951172 17.55541992 C6.66346365 17.58853166 8.07754339 17.61660591 9.49169922 17.6394043 C11.53277698 17.6732065 13.57269803 17.72552839 15.61328125 17.78125 C16.83869629 17.80743408 18.06411133 17.83361816 19.32666016 17.8605957 C23.97367665 18.44551867 27.41438046 19.85580791 30.63671875 23.29296875 C32.80320651 29.07026943 32.57313911 35.02099175 30.51171875 40.79296875 C28.62196622 43.49261522 27.64944028 44.71287868 24.76171875 46.29296875 C21.56693116 46.7096652 18.40052328 46.64140242 15.18359375 46.5859375 C13.7937326 46.57957024 13.7937326 46.57957024 12.37579346 46.57307434 C9.42080441 46.55630197 6.46650114 46.5186523 3.51171875 46.48046875 C1.50652028 46.46542005 -0.4986889 46.45173197 -2.50390625 46.43945312 C-7.41562821 46.40640313 -12.32683851 46.35463057 -17.23828125 46.29296875 C-17.23828125 42.99296875 -17.23828125 39.69296875 -17.23828125 36.29296875 C-16.12267822 36.2679126 -15.0070752 36.24285645 -13.85766602 36.21704102 C-9.73335535 36.12313454 -5.60921975 36.02287361 -1.48510742 35.9206543 C0.30261145 35.87724175 2.09037349 35.83557146 3.87817383 35.7956543 C6.44235266 35.73810415 9.00631287 35.67436672 11.5703125 35.609375 C12.37448105 35.59266251 13.1786496 35.57595001 14.00718689 35.55873108 C17.68841873 35.80076179 17.68841873 35.80076179 20.76171875 34.29296875 C20.80235707 32.6267976 20.80443975 30.9590878 20.76171875 29.29296875 C19.40808228 29.29466064 19.40808228 29.29466064 18.02709961 29.29638672 C14.65095195 29.28641031 11.27722538 29.24969089 7.90161133 29.1953125 C6.44597509 29.17724008 4.99016854 29.16956805 3.53442383 29.17285156 C-10.11545006 29.19155643 -10.11545006 29.19155643 -14.671875 25.42578125 C-18.52280581 21.41980889 -18.58149436 17.1141178 -18.51953125 11.80078125 C-18.10288418 8.08567817 -16.71572726 6.03824676 -14.23828125 3.29296875 C-9.67649472 -0.33027613 -5.56358686 -0.10145005 0 0 Z " fill="#2B489F" transform="translate(122.23828125,274.70703125)"/>
<path d="M0 0 C4.23573651 0.74311167 6.91042332 2.28343621 9.5625 5.625 C10.14122678 8.57374547 10.32928972 10.69269502 10.24365234 13.62817383 C10.2445285 14.41894318 10.24540466 15.20971252 10.24630737 16.02444458 C10.24214016 18.6279923 10.19553397 21.22893599 10.1484375 23.83203125 C10.13724216 25.64091077 10.12870357 27.44980853 10.12271118 29.25871277 C10.09983921 34.01193775 10.04093058 38.76405671 9.9744873 43.5168457 C9.91302923 48.36980223 9.88568867 53.22293808 9.85546875 58.07617188 C9.79118481 67.59301122 9.68567352 77.10874046 9.5625 86.625 C3.6225 86.625 -2.3175 86.625 -8.4375 86.625 C-8.5504827 76.15028724 -8.64220547 65.67597947 -8.69656086 55.20079517 C-8.7226494 50.3366767 -8.75803384 45.47299687 -8.81469727 40.60913086 C-8.86904363 35.91475301 -8.89892613 31.22079694 -8.91188622 26.52612877 C-8.92112141 24.73552498 -8.93915593 22.94494415 -8.96615028 21.15452003 C-9.0024767 18.64523152 -9.00744403 16.13768319 -9.00512695 13.62817383 C-9.02310333 12.88874039 -9.04107971 12.14930695 -9.05960083 11.38746643 C-9.02063366 7.48458342 -8.55329909 5.77276005 -6.11686707 2.66386414 C-3.4375 0.625 -3.4375 0.625 0 0 Z " fill="#2468B5" transform="translate(242.4375,170.375)"/>
<path d="M0 0 C4.76474525 1.47642222 7.10668768 3.80265241 10.48413086 7.36157227 C11.09571548 7.98164658 11.70730011 8.60172089 12.3374176 9.24058533 C14.27722658 11.21383634 16.19507003 13.20695157 18.11303711 15.20141602 C19.42869582 16.54718577 20.74573939 17.89160313 22.06420898 19.23461914 C25.28711432 22.51837228 28.4794653 25.82816788 31.67553711 29.13891602 C32.00553711 19.89891602 32.33553711 10.65891602 32.67553711 1.13891602 C35.97553711 1.13891602 39.27553711 1.13891602 42.67553711 1.13891602 C42.74963243 7.06540175 42.80411327 12.99161854 42.84033203 18.91845703 C42.8554289 20.93510636 42.87590826 22.95172281 42.90185547 24.96826172 C42.93819922 27.86507272 42.95525431 30.76145008 42.96850586 33.65844727 C42.98398972 34.56166214 42.99947357 35.46487701 43.01542664 36.39546204 C43.01565323 37.23610703 43.01587982 38.07675201 43.01611328 38.94287109 C43.02277512 39.68233475 43.02943695 40.4217984 43.03630066 41.18367004 C42.56767533 43.72349919 41.70580485 44.58328853 39.67553711 46.13891602 C36.55053711 46.85766602 36.55053711 46.85766602 32.67553711 46.13891602 C29.29979056 43.6625472 26.52733738 40.69168208 23.67553711 37.63891602 C22.90725586 36.84743164 22.13897461 36.05594727 21.34741211 35.24047852 C17.1879304 30.92536993 13.17652593 26.49994863 9.28100586 21.94555664 C7.49395242 19.93457801 5.57785084 18.04122974 3.67553711 16.13891602 C3.34553711 26.03891602 3.01553711 35.93891602 2.67553711 46.13891602 C-0.62446289 46.13891602 -3.92446289 46.13891602 -7.32446289 46.13891602 C-7.42336322 40.23076259 -7.4959466 34.32309129 -7.54418945 28.41430664 C-7.56430094 26.40445563 -7.59159404 24.3946631 -7.6262207 22.38500977 C-7.67475923 19.49554006 -7.69743611 16.6068441 -7.71508789 13.71704102 C-7.73573303 12.81898743 -7.75637817 11.92093384 -7.77764893 10.9956665 C-7.77902739 7.16051034 -7.72868003 4.81675707 -5.73754883 1.4777832 C-3.32446289 0.13891602 -3.32446289 0.13891602 0 0 Z " fill="#285EAE" transform="translate(226.324462890625,274.861083984375)"/>
<path d="M0 0 C1.32115059 0.00636726 1.32115059 0.00636726 2.66899109 0.01286316 C5.47104985 0.02960231 8.27237884 0.06724545 11.07421875 0.10546875 C12.97850521 0.12052176 14.88280299 0.13420909 16.78710938 0.14648438 C21.44559197 0.17949021 26.1035318 0.23123946 30.76171875 0.29296875 C30.76171875 3.92296875 30.76171875 7.55296875 30.76171875 11.29296875 C29.64611572 11.3180249 28.5305127 11.34308105 27.38110352 11.36889648 C23.25679285 11.46280296 19.13265725 11.56306389 15.00854492 11.6652832 C13.22082605 11.70869575 11.43306401 11.75036604 9.64526367 11.7902832 C7.08108484 11.84783335 4.51712463 11.91157078 1.953125 11.9765625 C1.14895645 11.99327499 0.3447879 12.00998749 -0.48374939 12.02720642 C-4.16498123 11.78517571 -4.16498123 11.78517571 -7.23828125 13.29296875 C-7.33727648 14.84252434 -7.36907649 16.39650548 -7.37109375 17.94921875 C-7.37238281 18.88894531 -7.37367188 19.82867187 -7.375 20.796875 C-7.37113281 21.78558594 -7.36726563 22.77429688 -7.36328125 23.79296875 C-7.36714844 24.78167969 -7.37101562 25.77039063 -7.375 26.7890625 C-7.37306641 28.19865234 -7.37306641 28.19865234 -7.37109375 29.63671875 C-7.36996582 30.50490234 -7.36883789 31.37308594 -7.36767578 32.26757812 C-7.46243495 34.28901029 -7.46243495 34.28901029 -6.23828125 35.29296875 C-3.5740144 35.45300363 -0.93267697 35.55239764 1.734375 35.609375 C2.930839 35.64054665 2.930839 35.64054665 4.151474 35.67234802 C6.70896486 35.73793033 9.26656155 35.79676842 11.82421875 35.85546875 C13.55404757 35.89864574 15.28386554 35.94225976 17.01367188 35.98632812 C21.26291135 36.09362047 25.51225765 36.19486301 29.76171875 36.29296875 C29.76171875 39.59296875 29.76171875 42.89296875 29.76171875 46.29296875 C24.15668625 46.36724543 18.55194164 46.42163083 12.9465332 46.45776367 C11.04055794 46.47283003 9.13461723 46.49328699 7.22875977 46.51928711 C4.48575299 46.55576517 1.74320547 46.57271667 -1 46.5859375 C-1.84914474 46.60142136 -2.69828949 46.61690521 -3.57316589 46.63285828 C-8.24560021 46.63418095 -11.57374052 46.51740844 -15.23828125 43.29296875 C-19.32064532 36.93356885 -18.71699979 30.60738619 -18.67578125 23.29296875 C-18.69576172 22.03484375 -18.71574219 20.77671875 -18.73632812 19.48046875 C-18.73016188 7.83859838 -18.73016188 7.83859838 -14.23828125 3.29296875 C-9.65479361 -0.31585054 -5.575764 -0.1016721 0 0 Z " fill="#2F70B9" transform="translate(296.23828125,274.70703125)"/>
<path d="M0 0 C3.63 0 7.26 0 11 0 C11.1360363 3.16813434 11.23459384 6.33033222 11.3125 9.5 C11.35439453 10.386875 11.39628906 11.27375 11.43945312 12.1875 C11.55781739 18.62651629 10.35276919 23.12127119 6 28 C0.87330765 31.09536142 -3.19831018 31.3053521 -9 31 C-9 35.95 -9 40.9 -9 46 C-12.3 46 -15.6 46 -19 46 C-19 40.72 -19 35.44 -19 30 C-21.536875 30.1546875 -21.536875 30.1546875 -24.125 30.3125 C-28.00098505 30.3174884 -30.51272298 30.23697528 -33.5625 27.75 C-36.97197097 23.90341736 -38.26131261 21.38238377 -38.1953125 16.234375 C-38.18886719 15.34492188 -38.18242187 14.45546875 -38.17578125 13.5390625 C-38.15902344 12.61867188 -38.14226562 11.69828125 -38.125 10.75 C-38.11597656 9.81414062 -38.10695312 8.87828125 -38.09765625 7.9140625 C-38.07413791 5.60926511 -38.03826826 3.30459967 -38 1 C-34.7 1 -31.4 1 -28 1 C-27.93941406 2.20398438 -27.87882813 3.40796875 -27.81640625 4.6484375 C-27.73200268 6.22397077 -27.64735459 7.79949096 -27.5625 9.375 C-27.52318359 10.1690625 -27.48386719 10.963125 -27.44335938 11.78125 C-27.31106596 16.02601221 -27.31106596 16.02601221 -26 20 C-22.20839703 20.05786668 -18.41690689 20.09355054 -14.625 20.125 C-13.00464844 20.15013672 -13.00464844 20.15013672 -11.3515625 20.17578125 C-9.8046875 20.18544922 -9.8046875 20.18544922 -8.2265625 20.1953125 C-7.27346191 20.20578613 -6.32036133 20.21625977 -5.33837891 20.22705078 C-2.8076787 20.23131867 -2.8076787 20.23131867 -1 18 C-0.63168919 16.06742145 -0.63168919 16.06742145 -0.5859375 13.8671875 C-0.54726562 13.06152344 -0.50859375 12.25585938 -0.46875 11.42578125 C-0.42234375 10.16314453 -0.42234375 10.16314453 -0.375 8.875 C-0.33632812 8.02550781 -0.29765625 7.17601562 -0.2578125 6.30078125 C-0.16343506 4.20088316 -0.08062414 2.10047109 0 0 Z " fill="#2B57A9" transform="translate(200,275)"/>
<path d="M0 0 C0.99 0 1.98 0 3 0 C3.29390625 1.00933594 3.5878125 2.01867187 3.890625 3.05859375 C9.45760906 21.29852686 17.42430013 39.7411229 29 55 C29.75539063 56.03511719 30.51078125 57.07023437 31.2890625 58.13671875 C60.90179359 98.19189663 104.51907596 122.57435924 153.30859375 130.7578125 C170.05109116 133.24141135 187.50444943 132.86326048 204.23046875 130.51171875 C209.80183264 129.75539889 215.39174928 129.37063222 221 129 C221 129.66 221 130.32 221 131 C198.20885449 140.2852815 164.62129091 138.33415416 141 133 C140.15034668 132.81195801 139.30069336 132.62391602 138.42529297 132.43017578 C106.56719711 125.13190232 76.17933248 110.09215918 52.515625 87.375 C50.0437418 84.97469422 50.0437418 84.97469422 47.37109375 82.90625 C43.75996653 80.00307029 40.982446 76.52893708 38 73 C37.24589844 72.14535156 36.49179688 71.29070312 35.71484375 70.41015625 C20.99710791 53.40662309 1.22922511 25.07734341 -0.1875 1.9375 C-0.125625 1.298125 -0.06375 0.65875 0 0 Z " fill="#32449E" transform="translate(62,289)"/>
<path d="M0 0 C1.7109375 1.28515625 1.7109375 1.28515625 3 3 C2.87625 4.258125 2.7525 5.51625 2.625 6.8125 C2.43177796 11.90348074 4.43853777 15.25109243 7.0625 19.4375 C7.43262207 20.05278564 7.80274414 20.66807129 8.18408203 21.30200195 C11.18690257 25.83521508 13.80380941 26.87997305 19 28 C21 30 21 30 21.3125 32.9375 C21 36 21 36 19.875 37.875 C17.11909116 39.52854531 15.14924548 39.39365568 12 39 C10.125 37.625 10.125 37.625 9 36 C9 35.34 9 34.68 9 34 C5.22803535 34.05176244 1.45838068 34.14681112 -2.3125 34.25 C-3.9202832 34.27126953 -3.9202832 34.27126953 -5.56054688 34.29296875 C-7.10258789 34.34130859 -7.10258789 34.34130859 -8.67578125 34.390625 C-9.62364502 34.41157227 -10.57150879 34.43251953 -11.5480957 34.45410156 C-14.69883744 35.15559101 -15.20674469 36.42114913 -17 39 C-20.5 39.5 -20.5 39.5 -24 39 C-26 37.375 -26 37.375 -27 35 C-26.77962372 31.32706204 -26.63033454 29.63033454 -24 27 C-22.453125 26.814375 -22.453125 26.814375 -20.875 26.625 C-15.61990296 25.23101637 -13.2634745 20.61591918 -10.5234375 16.25390625 C-8.64971251 12.25182186 -8.42178819 9.38712035 -9.01171875 5.05859375 C-9 3 -9 3 -7.70703125 1.24609375 C-5.09814297 -0.65833499 -3.13423419 -0.39177927 0 0 Z " fill="#2D82C6" transform="translate(246,119)"/>
<path d="M0 0 C0.8435202 0.00237671 1.68704041 0.00475342 2.55612183 0.00720215 C16.27756468 0.06743434 29.3910636 1.11629939 42.75 4.4375 C43.98878906 4.72625 45.22757812 5.015 46.50390625 5.3125 C69.12375993 11.18370188 97.44990357 21.84949472 113.75 39.4375 C112.76 40.0975 111.77 40.7575 110.75 41.4375 C109.9971875 40.89222656 109.244375 40.34695312 108.46875 39.78515625 C68.89738288 11.69140654 20.3695294 -1.63116946 -28.00463867 6.09765625 C-30.42566856 6.51767667 -32.83797171 6.96873304 -35.25 7.4375 C-35.98718262 7.57671875 -36.72436523 7.7159375 -37.48388672 7.859375 C-48.60992474 10.02395434 -59.02262993 13.69659622 -69.54858398 17.85839844 C-71.25 18.4375 -71.25 18.4375 -73.25 18.4375 C-73.25 17.7775 -73.25 17.1175 -73.25 16.4375 C-73.91 16.1075 -74.57 15.7775 -75.25 15.4375 C-66.24311372 11.70346232 -57.24183065 8.20844958 -47.8125 5.6875 C-47.13662842 5.5016333 -46.46075684 5.3157666 -45.7644043 5.12426758 C-30.67288403 1.26468934 -15.53139116 -0.11632126 0 0 Z " fill="#41A0D5" transform="translate(241.25,53.5625)"/>
<path d="M0 0 C2.65850704 0.02385966 5.31602014 0.02049186 7.97460938 0.01391602 C32.33832263 0.05261548 32.33832263 0.05261548 38.76367188 4.33618164 C39.09367188 4.99618164 39.42367187 5.65618164 39.76367188 6.33618164 C37.38839037 6.19414827 35.01351937 6.04766552 32.63867188 5.89868164 C31.97351563 5.85936523 31.30835938 5.82004883 30.62304688 5.77954102 C27.69003652 5.59263349 24.82532439 5.3471193 21.93017578 4.83349609 C-10.0058441 -0.18220726 -46.20566878 6.99777059 -75.23632812 20.33618164 C-76.55001897 20.91586087 -77.86382972 21.49526844 -79.17773438 22.07446289 C-96.71940949 29.93540406 -113.4907671 40.20976438 -127.10351562 53.90258789 C-129.91522126 55.79250724 -131.92111829 55.5959203 -135.23632812 55.33618164 C-132.22738317 51.24578214 -128.80315893 48.15598448 -124.79882812 45.08618164 C-124.18120605 44.60874512 -123.56358398 44.13130859 -122.92724609 43.6394043 C-87.45629357 16.44108526 -45.05145263 -0.43125461 0 0 Z " fill="#2F8CC9" transform="translate(238.236328125,39.663818359375)"/>
<path d="M0 0 C1.32 0 2.64 0 4 0 C2.17062291 7.30532991 -0.06759049 14.21590557 -3.0625 21.125 C-3.45171631 22.02589355 -3.84093262 22.92678711 -4.24194336 23.85498047 C-9.98626632 36.8251473 -17.28210703 48.81116731 -26 60 C-26.61488281 60.81855469 -27.22976563 61.63710938 -27.86328125 62.48046875 C-48.71454019 89.24295838 -77.31743498 110.37530429 -109.34375 121.67578125 C-111.85755138 122.58622855 -114.26598506 123.52442919 -116.70703125 124.59375 C-121.78165559 126.76084936 -126.43210875 128 -132 128 C-132 127.34 -132 126.68 -132 126 C-132.99 125.67 -133.98 125.34 -135 125 C-133.73929687 124.67128906 -132.47859375 124.34257812 -131.1796875 124.00390625 C-83.17989905 111.11867915 -42.82552226 82.96113696 -17.28125 39.90649414 C-9.99287779 27.21574712 -4.17163659 14.02424563 0 0 Z " fill="#3B67B3" transform="translate(415,292)"/>
<path d="M0 0 C-0.81082031 0.77601562 -1.62164062 1.55203125 -2.45703125 2.3515625 C-10.4048024 10.06383519 -17.3792008 18.13395602 -24 27 C-24.70769531 27.92425781 -25.41539063 28.84851563 -26.14453125 29.80078125 C-54.1441909 67.07843462 -63.20739601 109.36615398 -64 155 C-64.33 155 -64.66 155 -65 155 C-65.33 152.03 -65.66 149.06 -66 146 C-66.33 149.3 -66.66 152.6 -67 156 C-67.33 156 -67.66 156 -68 156 C-68.50515782 137.84540509 -67.92920919 120.79133878 -64 103 C-63.79101074 102.03368652 -63.58202148 101.06737305 -63.36669922 100.07177734 C-60.16126397 85.63891497 -55.38272091 72.32237567 -49 59 C-48.61328125 58.18547363 -48.2265625 57.37094727 -47.828125 56.53173828 C-37.9001846 35.91057874 -23.49148447 15.01352417 -6 0 C-3 -1 -3 -1 0 0 Z " fill="#365FAB" transform="translate(108,95)"/>
<path d="M0 0 C39.22985975 2.70550757 77.17087715 28.07760334 105 54 C105.73863281 54.68449219 106.47726562 55.36898437 107.23828125 56.07421875 C116.58517491 65.05586967 133.39693882 81.76260086 135 95 C133.19140625 94.79296875 133.19140625 94.79296875 131 94 C129.46484375 91.98828125 129.46484375 91.98828125 127.9375 89.3125 C105.94908862 53.20864656 70.82795475 28.23004242 32 13 C30.17662109 12.27296875 30.17662109 12.27296875 28.31640625 11.53125 C20.92368133 8.72799708 13.53668163 6.86027584 5.77514648 5.43066406 C3.82909815 5.04839316 1.9097655 4.53481856 0 4 C-0.33 3.01 -0.66 2.02 -1 1 C-0.67 0.67 -0.34 0.34 0 0 Z " fill="#3B9DD7" transform="translate(277,43)"/>
<path d="M0 0 C-1.36861853 4.09997003 -3.16559188 6.5604301 -6.19140625 9.625 C-7.47241211 10.92304565 -7.47241211 10.92304565 -8.77929688 12.24731445 C-9.69775391 13.15570068 -10.61621094 14.06408691 -11.5625 15 C-12.03163818 15.46642914 -12.50077637 15.93285828 -12.98413086 16.41342163 C-32.45682273 35.71600476 -56.18097872 51.73864514 -82.140625 60.96484375 C-85.05937817 61.97282206 -85.05937817 61.97282206 -87.99609375 63.40234375 C-93.69228486 65.87349694 -99.80367331 67.14087326 -105.8125 68.625 C-107.03259766 68.93695313 -108.25269531 69.24890625 -109.50976562 69.5703125 C-118.19942872 71.73689158 -126.59298188 73.1537946 -135.5625 73.125 C-136.80193359 73.12886719 -136.80193359 73.12886719 -138.06640625 73.1328125 C-140 73 -140 73 -141 72 C-142.70563778 71.84259395 -144.41727244 71.74906608 -146.12890625 71.68359375 C-147.16337891 71.64169922 -148.19785156 71.59980469 -149.26367188 71.55664062 C-150.35228516 71.51732422 -151.44089844 71.47800781 -152.5625 71.4375 C-153.65498047 71.39431641 -154.74746094 71.35113281 -155.87304688 71.30664062 C-158.58189564 71.20017932 -161.29083992 71.09816484 -164 71 C-164 70.67 -164 70.34 -164 70 C-163.2471875 69.9906543 -162.494375 69.98130859 -161.71875 69.97167969 C-102.10677402 69.04928564 -51.26413939 49.13796143 -9.37768555 6.34106445 C-3.1380169 0 -3.1380169 0 0 0 Z " fill="#4766AF" transform="translate(395,365)"/>
<path d="M0 0 C4.14891472 1.27458822 7.99331274 2.87616759 11.90966797 4.71582031 C35.5179452 15.73683225 61.10790561 21.20575334 87.125 21.1875 C88.76033691 21.18737915 88.76033691 21.18737915 90.42871094 21.18725586 C98.12934229 21.13335371 105.61133547 20.58115418 113.23046875 19.51171875 C118.80183264 18.75539889 124.39174928 18.37063222 130 18 C130 18.66 130 19.32 130 20 C107.20885449 29.2852815 73.62129091 27.33415416 50 22 C48.72552002 21.71793701 48.72552002 21.71793701 47.42529297 21.43017578 C30.24049842 17.49336391 13.65059224 11.11610105 -2 3 C-1.34 2.67 -0.68 2.34 0 2 C0 1.34 0 0.68 0 0 Z " fill="#364CA2" transform="translate(153,400)"/>
<path d="M0 0 C-1 3 -1 3 -2.78735352 4.17578125 C-3.56006592 4.55089844 -4.33277832 4.92601563 -5.12890625 5.3125 C-6.42248047 5.95735352 -6.42248047 5.95735352 -7.7421875 6.61523438 C-8.67289062 7.07220703 -9.60359375 7.52917969 -10.5625 8 C-40.47681078 23.20069116 -65.61206393 46.22956123 -83 75 C-84.32 74.34 -85.64 73.68 -87 73 C-79.56780459 61.49591029 -71.37109146 51.01274263 -62 41 C-60.69289063 39.59427734 -60.69289063 39.59427734 -59.359375 38.16015625 C-46.55203032 24.70185515 -19.84881341 0 0 0 Z " fill="#346BB5" transform="translate(168,70)"/>
<path d="M0 0 C0.98226563 0.00410889 1.96453125 0.00821777 2.9765625 0.01245117 C4.04390625 0.01438477 5.11125 0.01631836 6.2109375 0.01831055 C7.32984375 0.03055664 8.44875 0.04280273 9.6015625 0.05541992 C11.27992188 0.05638672 11.27992188 0.05638672 12.9921875 0.05737305 C21.32099931 0.10263833 21.32099931 0.10263833 23.6015625 1.24291992 C23.6015625 5.20291992 23.6015625 9.16291992 23.6015625 13.24291992 C14.3615625 13.24291992 5.1215625 13.24291992 -4.3984375 13.24291992 C-4.3984375 0.44548507 -4.3984375 0.44548507 0 0 Z " fill="#F1F7FA" transform="translate(348.3984375,285.757080078125)"/>
<path d="M0 0 C0.66 0 1.32 0 2 0 C2.45052013 5.68207017 0.85222372 10.1258427 -1.0625 15.375 C-1.37977051 16.25841064 -1.69704102 17.14182129 -2.02392578 18.05200195 C-9.97198796 39.85515127 -20.33285266 65.23959369 -38 81 C-40.8125 81.8125 -40.8125 81.8125 -43 82 C-42.21625 80.96875 -41.4325 79.9375 -40.625 78.875 C-39.41544809 77.25090683 -38.20730064 75.62576739 -37 74 C-36.24976563 73.00484375 -35.49953125 72.0096875 -34.7265625 70.984375 C-20.9524528 52.4440036 -11.19785636 31.78552465 -4.25708008 9.81518555 C-3.98919678 8.96996338 -3.72131348 8.12474121 -3.4453125 7.25390625 C-3.21344238 6.50439697 -2.98157227 5.7548877 -2.74267578 4.98266602 C-2 3 -2 3 0 0 Z " fill="#4084C3" transform="translate(433,285)"/>
<path d="M0 0 C3.5390625 0.7734375 3.5390625 0.7734375 6.2265625 3.6953125 C7.02333301 4.95532167 7.79363586 6.23238929 8.5390625 7.5234375 C9.14814453 8.47476563 9.14814453 8.47476563 9.76953125 9.4453125 C10.9140625 11.3203125 10.9140625 11.3203125 12.5390625 14.7734375 C12.2090625 16.0934375 11.8790625 17.4134375 11.5390625 18.7734375 C3.6190625 18.7734375 -4.3009375 18.7734375 -12.4609375 18.7734375 C-11.54343909 13.26844701 -10.73018121 10.92418539 -7.8359375 6.3984375 C-7.18367187 5.33882812 -6.53140625 4.27921875 -5.859375 3.1875 C-3.4609375 0.7734375 -3.4609375 0.7734375 0 0 Z " fill="#F8FAFB" transform="translate(243.4609375,131.2265625)"/>
<path d="M0 0 C-0.33 0.66 -0.66 1.32 -1 2 C-2.28910278 2.02187378 -2.28910278 2.02187378 -3.60424805 2.04418945 C-20.56810294 2.36464676 -37.28777054 2.77849551 -54 6 C-54.73138184 6.13776855 -55.46276367 6.27553711 -56.21630859 6.41748047 C-67.34841958 8.58379678 -77.76674897 12.25677097 -88.29858398 16.42089844 C-90 17 -90 17 -92 17 C-92 16.34 -92 15.68 -92 15 C-92.66 14.67 -93.32 14.34 -94 14 C-63.41440423 1.31995014 -33.08910589 -3.6838766 0 0 Z " fill="#3A8AC6" transform="translate(260,55)"/>
<path d="M0 0 C0.33 0.66 0.66 1.32 1 2 C1.66 2 2.32 2 3 2 C2.33427128 5.97030985 1.18861803 9.70718559 -0.01879883 13.53637695 C-4.88517546 29.02465719 -8.84326823 45.17537751 -9.31640625 61.46484375 C-9.33718735 62.14301651 -9.35796844 62.82118927 -9.37937927 63.51991272 C-9.44409309 65.65901831 -9.5033909 67.79823296 -9.5625 69.9375 C-9.60575984 71.39909924 -9.64937634 72.86068797 -9.69335938 74.32226562 C-9.79969251 77.8813984 -9.9011733 81.44064997 -10 85 C-10.33 85 -10.66 85 -11 85 C-11.33 82.03 -11.66 79.06 -12 76 C-12.33 79.3 -12.66 82.6 -13 86 C-13.33 86 -13.66 86 -14 86 C-14.8221513 56.45314697 -11.65620897 27.47640631 0 0 Z " fill="#3C5BAA" transform="translate(54,165)"/>
<path d="M0 0 C1.32 0 2.64 0 4 0 C2.17062291 7.30532991 -0.06759049 14.21590557 -3.0625 21.125 C-3.45171631 22.02589355 -3.84093262 22.92678711 -4.24194336 23.85498047 C-11.99098879 41.35163111 -22.76725497 56.36034912 -35 71 C-35.99 70.01 -36.98 69.02 -38 68 C-37.56171875 67.55914062 -37.1234375 67.11828125 -36.671875 66.6640625 C-19.14694132 48.0705353 -7.59588606 24.13573352 0 0 Z " fill="#3979BC" transform="translate(415,292)"/>
<path d="M0 0 C0.33 0 0.66 0 1 0 C1 2.97 1 5.94 1 9 C1.66 9 2.32 9 3 9 C3.0093457 9.86874756 3.01869141 10.73749512 3.02832031 11.63256836 C3.26962846 29.59464808 4.18426442 46.90840732 7.55859375 64.61035156 C8.13491317 67.73038169 8.58185994 70.8552383 9 74 C8.34 74 7.68 74 7 74 C6.67 74.99 6.34 75.98 6 77 C-0.34354736 51.72730733 -3.40644067 26.02520674 0 0 Z " fill="#4956AB" transform="translate(55,215)"/>
<path d="M0 0 C0.99 0.33 1.98 0.66 3 1 C3.29783057 25.32130275 1.4702361 47.21853929 -4 71 C-5.32 71 -6.64 71 -8 71 C-6.92486971 64.91602743 -5.7647284 58.86008455 -4.5 52.8125 C-1.02654954 35.25227825 -0.44469212 17.83106927 0 0 Z " fill="#4590C7" transform="translate(424,221)"/>
<path d="M0 0 C0.33 0 0.66 0 1 0 C1.09796875 1.13050781 1.1959375 2.26101562 1.296875 3.42578125 C3.67547012 31.5879632 3.67547012 31.5879632 10.51293945 58.8894043 C11.78629908 62.62482224 12.35916062 65.22223049 11 69 C10.01 69.495 10.01 69.495 9 70 C1.82710779 47.95531128 -5.12433679 23.27485631 0 0 Z " fill="#3E49A0" transform="translate(42,236)"/>
<path d="M0 0 C2.14588174 2.14588174 2.63002689 3.36407766 3.5859375 6.19140625 C3.8751709 7.04532959 4.1644043 7.89925293 4.46240234 8.77905273 C4.76355957 9.69759033 5.0647168 10.61612793 5.375 11.5625 C5.68518066 12.50617432 5.99536133 13.44984863 6.31494141 14.42211914 C10.55875278 27.57571832 13.5606255 40.13773455 14 54 C13.34 54 12.68 54 12 54 C12 63.57 12 73.14 12 83 C11.67 83 11.34 83 11 83 C10.98018066 82.175 10.96036133 81.35 10.93994141 80.5 C10.28314038 54.48922791 8.38623372 30.33115817 -1.3359375 5.828125 C-2 4 -2 4 -2 2 C-1.34 2 -0.68 2 0 2 C0 1.34 0 0.68 0 0 Z " fill="#3D99D4" transform="translate(412,167)"/>
<path d="M0 0 C-1.36861853 4.09997003 -3.16559188 6.5604301 -6.19140625 9.625 C-7.04645752 10.4910083 -7.90150879 11.3570166 -8.7824707 12.24926758 C-9.69988037 13.15700928 -10.61729004 14.06475098 -11.5625 15 C-12.49602295 15.93030029 -13.4295459 16.86060059 -14.39135742 17.8190918 C-22.35302255 25.66628112 -30.87341846 32.55278185 -40 39 C-41.32 38.34 -42.64 37.68 -44 37 C-43.28199219 36.42636719 -42.56398438 35.85273438 -41.82421875 35.26171875 C-30.4429413 26.14725175 -19.57874356 16.76382564 -9.37744141 6.34082031 C-3.1380283 0 -3.1380283 0 0 0 Z " fill="#356DB6" transform="translate(395,365)"/>
<path d="M0 0 C-1 3 -1 3 -2.78735352 4.17578125 C-3.56006592 4.55089844 -4.33277832 4.92601563 -5.12890625 5.3125 C-5.99169189 5.74280518 -6.85447754 6.17311035 -7.7434082 6.61645508 C-8.6737085 7.0730249 -9.60400879 7.52959473 -10.5625 8 C-22.70579724 14.14762822 -33.83498155 21.4179991 -44.421875 29.9765625 C-46.24324412 31.15774742 -47.88127774 31.58546738 -50 32 C-50 29 -50 29 -48.67749023 27.60888672 C-48.06075439 27.13725098 -47.44401855 26.66561523 -46.80859375 26.1796875 C-45.77375854 25.38328857 -45.77375854 25.38328857 -44.71801758 24.57080078 C-43.96544678 24.01118652 -43.21287598 23.45157227 -42.4375 22.875 C-41.66752686 22.2960498 -40.89755371 21.71709961 -40.10424805 21.12060547 C-11.59113789 0 -11.59113789 0 0 0 Z " fill="#357CBF" transform="translate(168,70)"/>
<path d="M0 0 C1.44010481 0.25662245 2.8770687 0.53090821 4.3125 0.8125 C5.11300781 0.96332031 5.91351563 1.11414063 6.73828125 1.26953125 C9.28652707 2.09253983 10.38468823 2.88214679 12 5 C12.39365568 8.14924548 12.52854531 10.11909116 10.875 12.875 C8.11909116 14.52854531 6.14924548 14.39365568 3 14 C1.125 12.625 1.125 12.625 0 11 C0 10.34 0 9.68 0 9 C-7.59 9 -15.18 9 -23 9 C-23.33 8.01 -23.66 7.02 -24 6 C-16.08 5.67 -8.16 5.34 0 5 C0 3.35 0 1.7 0 0 Z " fill="#398AC8" transform="translate(255,144)"/>
<path d="M0 0 C1.32 0.66 2.64 1.32 4 2 C-2.40040097 7.05476411 -9.29795848 10.90679265 -16.5 14.6875 C-17.8161731 15.3822644 -17.8161731 15.3822644 -19.15893555 16.09106445 C-35.07794189 24.33586776 -35.07794189 24.33586776 -39.28710938 23.6003418 C-40.13499023 23.30317261 -40.13499023 23.30317261 -41 23 C-37.52587022 18.85847161 -33.61947196 17.31136752 -28.75 15.3125 C-18.72310131 11.03941185 -9.07995059 6.05330039 0 0 Z " fill="#3567B2" transform="translate(350,402)"/>
<path d="M0 0 C-1.4360679 4.30820369 -4.70397319 5.49237123 -8.4375 7.6875 C-15.89829931 12.20912139 -22.80928763 17.04294246 -29.171875 23.05078125 C-34.36358382 27.92044798 -34.36358382 27.92044798 -38.5 28.4375 C-39.325 28.293125 -40.15 28.14875 -41 28 C-37.99092074 23.90941792 -34.56642106 20.8205391 -30.5625 17.75 C-29.95140381 17.27618896 -29.34030762 16.80237793 -28.71069336 16.31420898 C-5.21829782 -1.73943261 -5.21829782 -1.73943261 0 0 Z " fill="#3778BA" transform="translate(144,67)"/>
<path d="M0 0 C-0.33 0.99 -0.66 1.98 -1 3 C-3.78742468 4.17205438 -6.51217618 5.17390133 -9.375 6.125 C-19.00398974 9.47670007 -28.09157261 13.64222482 -37.21679688 18.17138672 C-39 19 -39 19 -42 20 C-42.33 18.68 -42.66 17.36 -43 16 C-9.66717936 -0.41656494 -9.66717936 -0.41656494 0 0 Z " fill="#3A84C5" transform="translate(185,49)"/>
<path d="M0 0 C0 0.66 0 1.32 0 2 C-1.35129647 2.48720213 -2.70624316 2.96428184 -4.0625 3.4375 C-4.81660156 3.70433594 -5.57070313 3.97117187 -6.34765625 4.24609375 C-12.87814088 6.1023287 -19.36364243 6.1360399 -26.08984375 6.09765625 C-27.03436905 6.0962413 -27.97889435 6.09482635 -28.95204163 6.09336853 C-31.94722763 6.0878036 -34.94233687 6.07525767 -37.9375 6.0625 C-39.97721246 6.05748046 -42.01692609 6.05291835 -44.05664062 6.04882812 C-49.03778966 6.03784567 -54.01888185 6.0206054 -59 6 C-59 5.34 -59 4.68 -59 4 C-57.81579468 3.970271 -57.81579468 3.970271 -56.60766602 3.93994141 C-33.1071582 3.33805803 -33.1071582 3.33805803 -9.80078125 0.44140625 C-6.50453561 -0.07808574 -3.33133089 -0.06662662 0 0 Z " fill="#2D50A6" transform="translate(283,418)"/>
<path d="M0 0 C0.33 1.98 0.66 3.96 1 6 C8.92 6 16.84 6 25 6 C25 6.33 25 6.66 25 7 C17.41 7 9.82 7 2 7 C1.34 8.65 0.68 10.3 0 12 C-1 13 -1 13 -4.375 13.3125 C-8 13 -8 13 -10 11.375 C-11.34180884 8.18820399 -10.92947204 6.28890107 -10 3 C-7.14414946 0.14414946 -3.95889689 0 0 0 Z " fill="#2877BD" transform="translate(230,145)"/>
<path d="M0 0 C0 0.33 0 0.66 0 1 C-2.31 1.33 -4.62 1.66 -7 2 C-7 2.99 -7 3.98 -7 5 C-7.55236328 5.06993164 -8.10472656 5.13986328 -8.67382812 5.21191406 C-20.68510496 6.75934865 -32.32944651 8.74809188 -44 12 C-43.67 11.01 -43.34 10.02 -43 9 C-43.99 8.67 -44.98 8.34 -46 8 C-36.34480109 5.26454051 -26.73264079 2.76050706 -16.8125 1.1875 C-16.04832764 1.0639917 -15.28415527 0.9404834 -14.49682617 0.81323242 C-9.61626105 0.08406326 -4.93386344 -0.10616467 0 0 Z " fill="#3E8ECA" transform="translate(228,40)"/>
<path d="M0 0 C1.32 0.33 2.64 0.66 4 1 C3.90150757 1.80219971 3.90150757 1.80219971 3.80102539 2.62060547 C2.88709152 10.77299626 2.6680008 18.93234299 2.4375 27.125 C2.39419844 28.57292622 2.35058094 30.02084302 2.30664062 31.46875 C2.20078894 34.97906578 2.09919761 38.48948913 2 42 C1.67 42 1.34 42 1 42 C0.67 39.03 0.34 36.06 0 33 C-0.33 36.3 -0.66 39.6 -1 43 C-1.33 43 -1.66 43 -2 43 C-2.05038777 39.12634335 -2.08617252 35.2528201 -2.10986328 31.37890625 C-2.12456776 29.4322232 -2.15001202 27.48563053 -2.17578125 25.5390625 C-2.22033647 16.8062386 -1.47719534 8.60170677 0 0 Z " fill="#465AAA" transform="translate(42,208)"/>
<path d="M0 0 C0.99 0.33 1.98 0.66 3 1 C0.91706401 5.60214145 -2.26209555 8.60551473 -5.8125 12.125 C-6.47813965 12.785 -7.1437793 13.445 -7.82958984 14.125 C-20.23067384 26.22878765 -20.23067384 26.22878765 -27 30 C-29.8671875 29.75 -29.8671875 29.75 -32 29 C-27 25 -27 25 -24.5625 23.0625 C-19.21947298 18.76201484 -14.05234824 14.3245088 -9 9.6875 C-8.17242187 8.93243164 -8.17242187 8.93243164 -7.328125 8.16210938 C-4.58174056 5.61626538 -2.11740825 3.09523915 0 0 Z " fill="#3E72B9" transform="translate(376,361)"/>
<path d="M0 0 C0.99 0 1.98 0 3 0 C3.3403125 1.10214844 3.680625 2.20429688 4.03125 3.33984375 C6.92023037 12.44984278 10.1500011 21.05627359 14.63476562 29.51538086 C17.16258136 34.48461709 17.16258136 34.48461709 16.21875 37.4765625 C15.8165625 37.97929687 15.414375 38.48203125 15 39 C12.78847038 36.23281961 11.23326793 33.58634243 9.84375 30.33203125 C9.46089844 29.43806641 9.07804687 28.54410156 8.68359375 27.62304688 C8.29300781 26.69556641 7.90242188 25.76808594 7.5 24.8125 C7.10941406 23.90435547 6.71882813 22.99621094 6.31640625 22.06054688 C-0.56800867 5.8694229 -0.56800867 5.8694229 0 0 Z " fill="#33409F" transform="translate(62,289)"/>
<path d="M0 0 C-0.81082031 0.77601562 -1.62164062 1.55203125 -2.45703125 2.3515625 C-10.39606127 10.05925336 -17.37427297 18.14356727 -24 27 C-24.66 25.68 -25.32 24.36 -26 23 C-23.19699504 18.57454982 -20.1422304 14.75358124 -16.5625 10.9375 C-16.09779297 10.43412109 -15.63308594 9.93074219 -15.15429688 9.41210938 C-13.78030751 7.93080703 -12.3929 6.46351471 -11 5 C-10.12214844 4.07316406 -9.24429688 3.14632812 -8.33984375 2.19140625 C-5.25862928 -0.69433886 -4.06159734 -1.35386578 0 0 Z " fill="#3A69B0" transform="translate(108,95)"/>
<path d="M0 0 C1.32 0 2.64 0 4 0 C2.11438615 7.64597928 -0.35459958 14.78530267 -3.5 22 C-3.89058594 22.92683594 -4.28117187 23.85367187 -4.68359375 24.80859375 C-5.06644531 25.69675781 -5.44929688 26.58492188 -5.84375 27.5 C-6.18599609 28.2940625 -6.52824219 29.088125 -6.88085938 29.90625 C-8.01531126 32.02864516 -9.21386792 33.40551299 -11 35 C-11.66 34.67 -12.32 34.34 -13 34 C-11.5300486 29.29906633 -9.65282039 24.85497998 -7.625 20.375 C-4.64982429 13.70738414 -2.13146022 6.99013041 0 0 Z " fill="#3F85C1" transform="translate(415,292)"/>
<path d="M0 0 C27.16403693 -0.20638953 27.16403693 -0.20638953 38 1 C37.67 1.66 37.34 2.32 37 3 C22.15 3.33 7.3 3.66 -8 4 C-7.67 3.34 -7.34 2.68 -7 2 C-4.69 2 -2.38 2 0 2 C0 1.34 0 0.68 0 0 Z " fill="#3795CC" transform="translate(222,54)"/>
<path d="M0 0 C11.52758993 0.15295958 23.03642678 0.67097052 34.55078125 1.23046875 C35.04578125 2.22046875 35.04578125 2.22046875 35.55078125 3.23046875 C31.08678062 5.46246906 24.95109091 4.41548884 20.05078125 4.41796875 C18.18679687 4.43633789 18.18679687 4.43633789 16.28515625 4.45507812 C9.12448868 4.4664083 2.49758999 4.01468258 -4.44921875 2.23046875 C-2.44921875 0.23046875 -2.44921875 0.23046875 0 0 Z " fill="#2D489C" transform="translate(219.44921875,434.76953125)"/>
<path d="M0 0 C8.67298515 0.94614383 17.33600437 1.97544024 26 3 C24.68 3.33 23.36 3.66 22 4 C22 4.66 22 5.32 22 6 C32.56 6 43.12 6 54 6 C54 6.33 54 6.66 54 7 C6.74435332 7.82956888 6.74435332 7.82956888 -2 2 C-1.34 2 -0.68 2 0 2 C0 1.34 0 0.68 0 0 Z " fill="#4560AC" transform="translate(202,418)"/>
<path d="M0 0 C0.99 0.33 1.98 0.66 3 1 C3.024727 5.35994067 3.04287281 9.71984414 3.05493164 14.07983398 C3.05995903 15.56291413 3.06678185 17.04598933 3.07543945 18.52905273 C3.08757482 20.66130801 3.09324425 22.79349773 3.09765625 24.92578125 C3.10289307 26.20880127 3.10812988 27.49182129 3.11352539 28.8137207 C3 32 3 32 2 35 C1.34 35 0.68 35 0 35 C0 23.45 0 11.9 0 0 Z " fill="#3E95D2" transform="translate(424,221)"/>
<path d="M0 0 C0.99 0.33 1.98 0.66 3 1 C2.67 1.66 2.34 2.32 2 3 C1.87713845 5.92841546 1.81422856 8.83456398 1.79467773 11.76416016 C1.78477814 12.67153427 1.77487854 13.57890839 1.76467896 14.51377869 C1.73301391 17.5221798 1.70828676 20.53059673 1.68359375 23.5390625 C1.66302854 25.62129128 1.64203219 27.70351584 1.62062073 29.78573608 C1.5653553 35.27332145 1.51596576 40.76094476 1.46777344 46.24859619 C1.41759103 51.84545276 1.36188797 57.44225404 1.30664062 63.0390625 C1.19900438 74.02599446 1.09757157 85.01297437 1 96 C0.67 96 0.34 96 0 96 C0 64.32 0 32.64 0 0 Z " fill="#D0E2ED" transform="translate(320,161)"/>
<path d="M0 0 C4.89224241 9.3547855 0.92203295 21.13814048 -1 31 C-1.33 30.34 -1.66 29.68 -2 29 C-2.99 29.33 -3.98 29.66 -5 30 C-4.14539205 23.6579094 -3.04460934 17.36480793 -1.9375 11.0625 C-1.75123047 9.99708984 -1.56496094 8.93167969 -1.37304688 7.83398438 C-0.91632744 5.22248608 -0.45861916 2.61116522 0 0 Z " fill="#4993CB" transform="translate(437,256)"/>
<path d="M0 0 C0.33 0 0.66 0 1 0 C1.7561957 5.3353808 0.07228259 8.03359862 -2.97265625 12.16601562 C-3.51792969 12.87435547 -4.06320312 13.58269531 -4.625 14.3125 C-5.40810547 15.40401367 -5.40810547 15.40401367 -6.20703125 16.51757812 C-10.16348732 21.75866128 -10.16348732 21.75866128 -14.3984375 22.98046875 C-15.68621094 22.99013672 -15.68621094 22.99013672 -17 23 C-16.236875 21.989375 -15.47375 20.97875 -14.6875 19.9375 C-12.49334447 17.02074999 -10.33012708 14.08358899 -8.1875 11.12890625 C-7.69419189 10.45029541 -7.20088379 9.77168457 -6.69262695 9.07250977 C-5.69109028 7.69342707 -4.69221576 6.312407 -3.69604492 4.92944336 C-2.48818817 3.26845642 -1.24714249 1.63169579 0 0 Z " fill="#3674B9" transform="translate(407,344)"/>
<path d="M0 0 C0.66 0 1.32 0 2 0 C2.25645895 6.73204732 1.28162548 12.9013607 0 19.5 C-0.19078125 20.51320312 -0.3815625 21.52640625 -0.578125 22.5703125 C-1.04564611 25.04817439 -1.51973328 27.52458268 -2 30 C-2.66 30 -3.32 30 -4 30 C-4.50754501 19.14417626 -3.62668409 10.36195453 0 0 Z " fill="#435EAD" transform="translate(60,194)"/>
<path d="M0 0 C-3.17323981 3.45285529 -6.69758282 4.90523747 -10.9375 6.75 C-11.65357422 7.07871094 -12.36964844 7.40742188 -13.10742188 7.74609375 C-13.80287109 8.05160156 -14.49832031 8.35710937 -15.21484375 8.671875 C-15.84511475 8.9512793 -16.47538574 9.23068359 -17.12475586 9.51855469 C-19.40363708 10.10362874 -20.79245219 9.7298386 -23 9 C-19.78724952 5.32256242 -16.52603614 3.60724927 -12.0625 1.6875 C-10.85722656 1.15511719 -9.65195312 0.62273437 -8.41015625 0.07421875 C-4.96919964 -1.00970229 -3.37551767 -1.09528182 0 0 Z " fill="#315DAC" transform="translate(332,416)"/>
<path d="M0 0 C0.33 0 0.66 0 1 0 C1 2.97 1 5.94 1 9 C1.66 9 2.32 9 3 9 C3 17.58 3 26.16 3 35 C2.67 35 2.34 35 2 35 C1.67 30.71 1.34 26.42 1 22 C0.67 26.29 0.34 30.58 0 35 C-0.33 35 -0.66 35 -1 35 C-1.02931979 30.85418181 -1.04690557 26.70839075 -1.0625 22.5625 C-1.07506836 20.81549805 -1.07506836 20.81549805 -1.08789062 19.03320312 C-1.10602151 12.59673798 -0.86649876 6.37934125 0 0 Z " fill="#6174BB" transform="translate(55,215)"/>
<path d="M0 0 C4.21424915 0.49636653 6.09606034 2.82220218 8.9375 5.8125 C11.48154532 8.47450724 13.91180883 10.93113505 16.81640625 13.19921875 C17.53699219 13.79347656 18.25757812 14.38773437 19 15 C19 15.66 19 16.32 19 17 C18.01 17.33 17.02 17.66 16 18 C10.24173139 12.98142993 4.69142083 8.0494637 0 2 C0 1.34 0 0.68 0 0 Z " fill="#283B9A" transform="translate(101,361)"/>
<path d="M0 0 C0 0.33 0 0.66 0 1 C-2.31 1.33 -4.62 1.66 -7 2 C-4.525 2.495 -4.525 2.495 -2 3 C-2 3.33 -2 3.66 -2 4 C-9.32650983 5.05987432 -16.64971227 6.11796547 -24 7 C-24 6.34 -24 5.68 -24 5 C-24.66 4.67 -25.32 4.34 -26 4 C-23.16888282 3.32246768 -20.33570624 2.65781273 -17.5 2 C-16.70851562 1.80921875 -15.91703125 1.6184375 -15.1015625 1.421875 C-9.93737043 0.23665059 -5.29774939 -0.19441282 0 0 Z " fill="#4798CD" transform="translate(222,55)"/>
<path d="M0 0 C2.83188775 3.4505463 4.74503018 7.25962359 6.6875 11.25 C7.16799805 12.22453125 7.16799805 12.22453125 7.65820312 13.21875 C8.44247141 14.81069757 9.22174255 16.40510529 10 18 C9.01 18.99 8.02 19.98 7 21 C5.43218535 18.2641322 3.90062368 15.50958401 2.375 12.75 C1.92898437 11.97269531 1.48296875 11.19539063 1.0234375 10.39453125 C0.6109375 9.64042969 0.1984375 8.88632812 -0.2265625 8.109375 C-0.61408691 7.41811523 -1.00161133 6.72685547 -1.40087891 6.01464844 C-2 4 -2 4 -1.11083984 1.74316406 C-0.7442627 1.16791992 -0.37768555 0.59267578 0 0 Z " fill="#39429F" transform="translate(62,323)"/>
<path d="M0 0 C0.33 0 0.66 0 1 0 C1.64217298 9.67846426 2.16831537 19.29381339 2 29 C1.01 29 0.02 29 -1 29 C-1.02903892 24.91668161 -1.04681189 20.8333898 -1.0625 16.75 C-1.07087891 15.59113281 -1.07925781 14.43226563 -1.08789062 13.23828125 C-1.09111328 12.12324219 -1.09433594 11.00820312 -1.09765625 9.859375 C-1.10289307 8.83295898 -1.10812988 7.80654297 -1.11352539 6.74902344 C-1.01336951 4.32374344 -0.69923078 2.31302639 0 0 Z " fill="#293FA2" transform="translate(56,233)"/>
<path d="M0 0 C0.33 0 0.66 0 1 0 C1.33 4.62 1.66 9.24 2 14 C1.34 14 0.68 14 0 14 C0 23.57 0 33.14 0 43 C-0.33 43 -0.66 43 -1 43 C-1.19305647 37.84089018 -1.37164856 32.68155309 -1.53710938 27.52148438 C-1.59535086 25.76776861 -1.65747781 24.01417726 -1.72363281 22.26074219 C-1.8182798 19.73395451 -1.89874232 17.20704267 -1.9765625 14.6796875 C-2.00875885 13.90132538 -2.0409552 13.12296326 -2.0741272 12.3210144 C-2.19788129 7.77918358 -1.74542911 4.28315199 0 0 Z " fill="#6DAFDB" transform="translate(424,207)"/>
<path d="M0 0 C2.82917645 4.24376468 1.80757513 7.13931198 1 12 C0.86335938 12.84304687 0.72671875 13.68609375 0.5859375 14.5546875 C-0.29409706 19.2233454 -0.29409706 19.2233454 -1 21 C-1.99 21.33 -2.98 21.66 -4 22 C-4.2248832 16.5957757 -3.4886411 12.18724757 -2 7.0625 C-1.80921875 6.37865234 -1.6184375 5.69480469 -1.421875 4.99023438 C-0.95595063 3.32455474 -0.47911589 1.66193325 0 0 Z " fill="#2C499E" transform="translate(47,188)"/>
<path d="M0 0 C2.79227512 2.70001934 5.25943188 5.48309305 7.625 8.5625 C8.21539062 9.32691406 8.80578125 10.09132813 9.4140625 10.87890625 C10.66195497 12.54788559 11.84404849 14.26607273 13 16 C11.68 16.33 10.36 16.66 9 17 C7.37004698 15.0873614 5.74600485 13.17019858 4.125 11.25 C3.66480469 10.71117187 3.20460938 10.17234375 2.73046875 9.6171875 C0.42602052 6.87856787 -1.60180463 4.3106695 -3 1 C-2.01 0.67 -1.02 0.34 0 0 Z " fill="#3345A3" transform="translate(91,345)"/>
<path d="M0 0 C4.11526292 0.64173654 7.30388435 2.86986158 10.75 5.0625 C11.35199219 5.43955078 11.95398438 5.81660156 12.57421875 6.20507812 C14.05249143 7.13193163 15.52666089 8.06532389 17 9 C16.67 9.66 16.34 10.32 16 11 C12.05611828 10.41125507 9.17649717 9.21364728 5.75 7.1875 C4.87859375 6.68605469 4.0071875 6.18460937 3.109375 5.66796875 C1 4 1 4 0.203125 1.80078125 C0.13609375 1.20652344 0.0690625 0.61226563 0 0 Z " fill="#303E96" transform="translate(130,403)"/>
<path d="M0 0 C0.33 0 0.66 0 1 0 C1 1.98 1 3.96 1 6 C1.66 6 2.32 6 3 6 C2.85848172 8.0836309 2.71162064 10.16689938 2.5625 12.25 C2.48128906 13.41015625 2.40007812 14.5703125 2.31640625 15.765625 C2.06752213 18.30977376 1.71885058 20.55953248 1 23 C0.01 22.67 -0.98 22.34 -2 22 C-1.46589137 14.64748331 -0.86859084 7.32097997 0 0 Z " fill="#4D96CD" transform="translate(423,250)"/>
<path d="M0 0 C0.33 0 0.66 0 1 0 C2.95622669 23.92884433 2.95622669 23.92884433 0 29 C-1.6653214 27.3346786 -1.13003082 25.33182429 -1.1328125 23.046875 C-1.13410156 22.03496094 -1.13539062 21.02304687 -1.13671875 19.98046875 C-1.13285156 18.91441406 -1.12898438 17.84835938 -1.125 16.75 C-1.12886719 15.69941406 -1.13273437 14.64882812 -1.13671875 13.56640625 C-1.13542969 12.54933594 -1.13414063 11.53226563 -1.1328125 10.484375 C-1.13168457 9.55334961 -1.13055664 8.62232422 -1.12939453 7.66308594 C-1.00073507 5.0151285 -0.58837062 2.58135194 0 0 Z " fill="#293D9C" transform="translate(42,236)"/>
<path d="M0 0 C0.66 0.66 1.32 1.32 2 2 C1.62405004 5.95772773 0.11539824 9.24158836 -1.5625 12.8125 C-2.01753906 13.78832031 -2.47257812 14.76414063 -2.94140625 15.76953125 C-3.29074219 16.50558594 -3.64007813 17.24164063 -4 18 C-4.99 18 -5.98 18 -7 18 C-6.68978386 11.02013687 -3.5048042 5.92708478 0 0 Z " fill="#3155A5" transform="translate(62,149)"/>
<path d="M0 0 C0.33 0.99 0.66 1.98 1 3 C-1.37528151 2.85796663 -3.75015251 2.71148388 -6.125 2.5625 C-6.79015625 2.52318359 -7.4553125 2.48386719 -8.140625 2.44335938 C-12.15018817 2.187848 -16.04994196 1.73217587 -20 1 C-14.8165149 -4.1834851 -6.23560462 -2.4178875 0 0 Z " fill="#3394CD" transform="translate(277,43)"/>
<path d="M0 0 C0.99 0.33 1.98 0.66 3 1 C1.38989473 5.07376031 -1.53822271 7.76507069 -4.625 10.75 C-5.140625 11.25660156 -5.65625 11.76320313 -6.1875 12.28515625 C-7.45383339 13.52803902 -8.7263144 14.76465276 -10 16 C-10.66 15.34 -11.32 14.68 -12 14 C-11.55269531 13.49210937 -11.10539062 12.98421875 -10.64453125 12.4609375 C-7.03713058 8.35357725 -3.47885075 4.21678879 0 0 Z " fill="#2E6CB8" transform="translate(376,361)"/>
<path d="M0 0 C0.99 0 1.98 0 3 0 C3.67364661 2.08108685 4.33866798 4.1649671 5 6.25 C5.37125 7.41015625 5.7425 8.5703125 6.125 9.765625 C7 13 7 13 7 17 C6.01 17 5.02 17 4 17 C3.32389577 15.10751181 2.65949561 13.2108398 2 11.3125 C1.62875 10.25675781 1.2575 9.20101563 0.875 8.11328125 C0.0608143 5.21637944 -0.17709796 2.98299377 0 0 Z " fill="#2E3B9C" transform="translate(62,289)"/>
<path d="M0 0 C-0.33 0.33 -0.66 0.66 -1 1 C-0.34 1.66 0.32 2.32 1 3 C-0.74816858 3.50636607 -2.49862263 4.00484619 -4.25 4.5 C-5.22453125 4.7784375 -6.1990625 5.056875 -7.203125 5.34375 C-10 6 -10 6 -14 6 C-14 5.34 -14 4.68 -14 4 C-14.99 3.67 -15.98 3.34 -17 3 C-14.54383175 2.30378686 -12.0855877 1.61775372 -9.625 0.9375 C-8.57699219 0.63875977 -8.57699219 0.63875977 -7.5078125 0.33398438 C-2.2265625 -1.11328125 -2.2265625 -1.11328125 0 0 Z " fill="#4D6EB5" transform="translate(297,414)"/>
<path d="M0 0 C0.556875 0.28875 1.11375 0.5775 1.6875 0.875 C3.9566534 2.04502579 3.9566534 2.04502579 6.3125 2.75 C10.06166685 4.49379853 13.16247834 6.99075513 16 10 C16 10.66 16 11.32 16 12 C15.01 12.33 14.02 12.66 13 13 C11.39179588 11.58791833 9.78859292 10.17013964 8.1875 8.75 C7.29417969 7.96109375 6.40085937 7.1721875 5.48046875 6.359375 C3.35871775 4.34120555 1.65745577 2.40083295 0 0 Z " fill="#2B3893" transform="translate(100,381)"/>
<path d="M0 0 C4.2938968 4.2938968 4.22601478 10.32864686 4.265625 16.08203125 C4 18 4 18 2 20 C1.49356447 17.77228658 0.9951038 15.54275924 0.5 13.3125 C0.2215625 12.07113281 -0.056875 10.82976562 -0.34375 9.55078125 C-0.89507055 6.56774329 -1.22366966 4.01394873 -1 1 C-0.67 0.67 -0.34 0.34 0 0 Z " fill="#4298D1" transform="translate(420,193)"/>
<path d="M0 0 C-1.95238853 2.00612399 -3.91137822 4.00492433 -5.875 6 C-6.43058594 6.57234375 -6.98617187 7.1446875 -7.55859375 7.734375 C-9.00134404 9.19450782 -10.4974374 10.60149298 -12 12 C-12.66 12 -13.32 12 -14 12 C-12.71702309 6.61149699 -10.29651767 3.35631278 -6 0 C-3 -1 -3 -1 0 0 Z " fill="#2C64AD" transform="translate(108,95)"/>
<path d="M0 0 C0.33 0 0.66 0 1 0 C1.66 5.94 2.32 11.88 3 18 C2.34 18 1.68 18 1 18 C0.34 18.66 -0.32 19.32 -1 20 C-1.99939172 12.77466796 -1.96290189 7.04335384 0 0 Z " fill="#4655A5" transform="translate(44,256)"/>
<path d="M0 0 C3.68069887 1.53643852 5.98775204 3.78150945 8.75 6.625 C9.54921875 7.44226563 10.3484375 8.25953125 11.171875 9.1015625 C12.07679687 10.04128906 12.07679687 10.04128906 13 11 C12.34 11.66 11.68 12.32 11 13 C10.5875 12.525625 10.175 12.05125 9.75 11.5625 C7.79016559 9.81264784 6.51491559 9.56788417 4 9 C1.3144406 6.3144406 0.93950026 3.62378672 0 0 Z " fill="#3E4A9E" transform="translate(94,372)"/>
<path d="M0 0 C1.8466683 3.14590528 2.24774283 5.43150052 2.1875 9.0625 C2.18105469 9.91972656 2.17460937 10.77695312 2.16796875 11.66015625 C2 14 2 14 1 17 C0.01 17.33 -0.98 17.66 -2 18 C-2.23268915 11.71739294 -1.40454548 6.11980533 0 0 Z " fill="#3A8CC9" transform="translate(437,256)"/>
<path d="M0 0 C0.66 0.66 1.32 1.32 2 2 C0.70902308 4.10459261 -0.58275359 6.20868708 -1.875 8.3125 C-2.42220703 9.20485352 -2.42220703 9.20485352 -2.98046875 10.11523438 C-4.61411539 12.77362299 -6.26895824 15.40343737 -8 18 C-8.7421875 15.890625 -8.7421875 15.890625 -9 13 C-7.3828125 9.921875 -7.3828125 9.921875 -5.125 6.75 C-4.01511719 5.16445312 -4.01511719 5.16445312 -2.8828125 3.546875 C-1 1 -1 1 0 0 Z " fill="#3A8CC1" transform="translate(238,131)"/>
<path d="M0 0 C0 0.66 0 1.32 0 2 C-7.01805857 3.10087193 -13.90565767 3.09733092 -21 3 C-20.67 2.34 -20.34 1.68 -20 1 C-13.43983174 -0.49094733 -6.69023716 -0.09054456 0 0 Z " fill="#2387C6" transform="translate(235,55)"/>
<path d="M0 0 C-0.33 0.99 -0.66 1.98 -1 3 C-5.07467725 4.48882438 -8.66541415 5.26270217 -13 5 C-13 4.01 -13 3.02 -13 2 C-8.49646738 0.24252386 -4.82360189 -0.19294408 0 0 Z " fill="#3155A7" transform="translate(291,430)"/>
<path d="M0 0 C1.98 0.495 1.98 0.495 4 1 C3.67 4.3 3.34 7.6 3 11 C2.01 11 1.02 11 0 11 C-0.33 11.99 -0.66 12.98 -1 14 C-1.08333357 9.1666528 -0.95261487 4.76307437 0 0 Z " fill="#344FA4" transform="translate(42,208)"/>
<path d="M0 0 C0.66 0 1.32 0 2 0 C1.34 5.28 0.68 10.56 0 16 C-0.66 16 -1.32 16 -2 16 C-2.05423638 14.08364783 -2.09289963 12.16685075 -2.125 10.25 C-2.14820313 9.18265625 -2.17140625 8.1153125 -2.1953125 7.015625 C-2.00487687 4.07529894 -1.52670104 2.47638122 0 0 Z " fill="#233F9F" transform="translate(58,208)"/>
<path d="M0 0 C4.09189762 1.36396587 4.61547327 3.34848983 6.6875 7.0625 C7.31011719 8.16722656 7.93273437 9.27195313 8.57421875 10.41015625 C9.04472656 11.26480469 9.51523437 12.11945313 10 13 C9.01 13.33 8.02 13.66 7 14 C5.82508418 12.23462904 4.66031316 10.46250287 3.5 8.6875 C2.8503125 7.70136719 2.200625 6.71523437 1.53125 5.69921875 C0 3 0 3 0 0 Z " fill="#4697CC" transform="translate(247,131)"/>
<path d="M0 0 C0.99 1.32 1.98 2.64 3 4 C-1.18461538 9.78461538 -1.18461538 9.78461538 -5.3125 10.875 C-6.6428125 10.936875 -6.6428125 10.936875 -8 11 C-7.59007812 10.45730469 -7.18015625 9.91460937 -6.7578125 9.35546875 C-6.21898437 8.64003906 -5.68015625 7.92460937 -5.125 7.1875 C-4.59132813 6.47980469 -4.05765625 5.77210938 -3.5078125 5.04296875 C-2.29185219 3.39543703 -1.13583859 1.70375789 0 0 Z " fill="#447DBE" transform="translate(398,356)"/>
<path d="M0 0 C0.99 0.33 1.98 0.66 3 1 C1.19587357 4.26460973 0.16605307 5.88929795 -3 8 C-5.6875 8.125 -5.6875 8.125 -8 8 C-5.6166139 4.85052551 -3.44915025 2.0027324 0 0 Z " fill="#3973B4" transform="translate(111,87)"/>
<path d="M0 0 C2.64465038 3.1254959 3.84414715 6.08788267 5 10 C4.01 10.66 3.02 11.32 2 12 C1.32845067 10.71086513 0.66291141 9.41859796 0 8.125 C-0.37125 7.40570313 -0.7425 6.68640625 -1.125 5.9453125 C-2 4 -2 4 -2 2 C-1.34 2 -0.68 2 0 2 C0 1.34 0 0.68 0 0 Z " fill="#4251A8" transform="translate(74,316)"/>
<path d="M0 0 C0.33 0 0.66 0 1 0 C1.33 4.29 1.66 8.58 2 13 C1.34 13 0.68 13 0 13 C-0.33 14.32 -0.66 15.64 -1 17 C-2.89505784 11.07794424 -2.22914492 5.71218387 0 0 Z " fill="#4C5CAF" transform="translate(58,257)"/>
<path d="M0 0 C7.41834582 -0.09377123 14.66236293 -0.17402193 22 1 C22 1.33 22 1.66 22 2 C17.07262981 3.97094808 13.21979128 4.1799928 8 4 C9.32 3.34 10.64 2.68 12 2 C8.04 1.67 4.08 1.34 0 1 C0 0.67 0 0.34 0 0 Z " fill="#5AA8D5" transform="translate(247,54)"/>
<path d="M0 0 C3.39417765 3.12621626 5.6062718 5.56541027 7 10 C5.25 9.875 5.25 9.875 3 9 C0.6875 6.125 0.6875 6.125 -1 3 C-0.67 2.01 -0.34 1.02 0 0 Z " fill="#27389D" transform="translate(84,336)"/>
<path d="M0 0 C3.63 0.66 7.26 1.32 11 2 C10.01 2.33 9.02 2.66 8 3 C8 3.66 8 4.32 8 5 C1.375 4.25 1.375 4.25 -2 2 C-1.34 2 -0.68 2 0 2 C0 1.34 0 0.68 0 0 Z " fill="#3F56A6" transform="translate(183,413)"/>
<path d="M0 0 C0.66 1.32 1.32 2.64 2 4 C0.02 6.97 0.02 6.97 -2 10 C-3.32 9.34 -4.64 8.68 -6 8 C-4.02 5.36 -2.04 2.72 0 0 Z " fill="#4480BF" transform="translate(392,341)"/>
<path d="M0 0 C2.34955038 3.52432557 2.77861795 5.79374114 3 10 C1.51171875 12.22265625 1.51171875 12.22265625 0 14 C-0.19627391 12.41773035 -0.38165538 10.83410729 -0.5625 9.25 C-0.66691406 8.36828125 -0.77132813 7.4865625 -0.87890625 6.578125 C-0.99456676 4.11567549 -0.73638695 2.33461936 0 0 Z " fill="#52A4D6" transform="translate(418,183)"/>
<path d="M0 0 C2.97 0.99 5.94 1.98 9 3 C8.01 3.99 7.02 4.98 6 6 C3.69 5.34 1.38 4.68 -1 4 C-0.67 2.68 -0.34 1.36 0 0 Z " fill="#3F4CA0" transform="translate(159,418)"/>
<path d="M0 0 C1.20462891 -0.02126953 1.20462891 -0.02126953 2.43359375 -0.04296875 C4.5625 0.1875 4.5625 0.1875 6.5625 2.1875 C4.97355928 3.77644072 3.31448576 3.35748411 1.125 3.375 C-0.07962891 3.39626953 -0.07962891 3.39626953 -1.30859375 3.41796875 C-3.4375 3.1875 -3.4375 3.1875 -5.4375 1.1875 C-3.84855928 -0.40144072 -2.18948576 0.01751589 0 0 Z " fill="#3697D0" transform="translate(268.4375,55.8125)"/>
<path d="M0 0 C0 1.32 0 2.64 0 4 C-2.31 4.33 -4.62 4.66 -7 5 C-6.34 4.67 -5.68 4.34 -5 4 C-5 3.34 -5 2.68 -5 2 C-6.98 2 -8.96 2 -11 2 C-11 1.67 -11 1.34 -11 1 C-7.26513121 0.4254048 -3.78706732 0 0 0 Z " fill="#4E6AAF" transform="translate(278,432)"/>
<path d="M0 0 C1.98 0.495 1.98 0.495 4 1 C2.515 4.96 2.515 4.96 1 9 C0.34 9 -0.32 9 -1 9 C-0.67 6.03 -0.34 3.06 0 0 Z " fill="#367FC2" transform="translate(425,306)"/>
<path d="M0 0 C3.16115776 1.36983503 3.9927092 1.9890638 6 5 C6 5.99 6 6.98 6 8 C4.125 7.6875 4.125 7.6875 2 7 C0 4 0 4 0 0 Z " fill="#2D94D1" transform="translate(398,118)"/>
<path d="M0 0 C-0.556875 0.226875 -1.11375 0.45375 -1.6875 0.6875 C-4.73810743 2.41892584 -6.74118761 4.31384473 -9 7 C-9.87989974 10.18150892 -9.87989974 10.18150892 -10 13 C-10.33 13 -10.66 13 -11 13 C-11.60552093 5.85485307 -11.60552093 5.85485307 -8.875 2 C-5.57244809 -0.29742742 -3.9354597 -0.45761159 0 0 Z " fill="#2B8FCE" transform="translate(313,112)"/>
<path d="M0 0 C0.99 0 1.98 0 3 0 C3.66 2.97 4.32 5.94 5 9 C3.68 8.67 2.36 8.34 1 8 C0.67 5.36 0.34 2.72 0 0 Z " fill="#38449F" transform="translate(62,289)"/>
<path d="M0 0 C0.66 0 1.32 0 2 0 C3.60725635 3.21451269 3.05748185 6.43612536 3 10 C2.01 9.67 1.02 9.34 0 9 C0 6.03 0 3.06 0 0 Z " fill="#3143A2" transform="translate(58,270)"/>
<path d="M0 0 C4.29 0 8.58 0 13 0 C13 0.66 13 1.32 13 2 C10.29120665 3.35439668 7.99066732 3.06501451 5 3 C5 2.67 5 2.34 5 2 C3.35 1.67 1.7 1.34 0 1 C0 0.67 0 0.34 0 0 Z " fill="#3050A4" transform="translate(260,434)"/>
<path d="M0 0 C0.99 0.99 1.98 1.98 3 3 C2.01 5.97 1.02 8.94 0 12 C-2.61577816 6.76844369 -1.6207859 5.40261966 0 0 Z " fill="#4A8CC4" transform="translate(412,301)"/>
<path d="M0 0 C-0.33 0.99 -0.66 1.98 -1 3 C-3.64 2.67 -6.28 2.34 -9 2 C-9 1.34 -9 0.68 -9 0 C-5.93109813 -1.53445094 -3.29905734 -0.54984289 0 0 Z " fill="#3A9AD3" transform="translate(299,48)"/>
<path d="M0 0 C0 0.33 0 0.66 0 1 C-2.31 1.33 -4.62 1.66 -7 2 C-7 2.99 -7 3.98 -7 5 C-8.32 4.67 -9.64 4.34 -11 4 C-10.67 3.34 -10.34 2.68 -10 2 C-11.65 2 -13.3 2 -15 2 C-15 1.67 -15 1.34 -15 1 C-9.91913204 0.15318867 -5.15171623 -0.09038099 0 0 Z " fill="#6BACD3" transform="translate(228,40)"/>
<path d="M0 0 C0.33 0.66 0.66 1.32 1 2 C1.66 2 2.32 2 3 2 C2.67 4.97 2.34 7.94 2 11 C1.67 9.68 1.34 8.36 1 7 C0.34 7 -0.32 7 -1 7 C-0.67 4.69 -0.34 2.38 0 0 Z " fill="#4864B0" transform="translate(61,187)"/>
<path d="M0 0 C0 0.33 0 0.66 0 1 C-1.65 1 -3.3 1 -5 1 C-5.99 3.97 -6.98 6.94 -8 10 C-8.33 10 -8.66 10 -9 10 C-9.36103152 3.6217765 -9.36103152 3.6217765 -7.875 1.0625 C-5.214973 -0.44484863 -2.99793795 -0.19986253 0 0 Z " fill="#4191C9" transform="translate(246,119)"/>
<path d="M0 0 C0.99 0.99 1.98 1.98 3 3 C0.75 4.625 0.75 4.625 -2 6 C-4.3125 5.1875 -4.3125 5.1875 -6 4 C-4.02 2.68 -2.04 1.36 0 0 Z " fill="#4080C0" transform="translate(134,87)"/>
<path d="M0 0 C2.97 0.495 2.97 0.495 6 1 C6 2.32 6 3.64 6 5 C1.545 4.01 1.545 4.01 -3 3 C-2.01 2.67 -1.02 2.34 0 2 C0 1.34 0 0.68 0 0 Z " fill="#4FA6D8" transform="translate(292,61)"/>
<path d="M0 0 C2.30163882 3.45245824 2.34490322 4.94738713 2 9 C1.34 9.66 0.68 10.32 0 11 C-1.26026798 8.47946405 -0.91874445 7.1457902 -0.5625 4.375 C-0.46066406 3.55773437 -0.35882813 2.74046875 -0.25390625 1.8984375 C-0.17011719 1.27195312 -0.08632813 0.64546875 0 0 Z " fill="#29389A" transform="translate(45,271)"/>
<path d="M0 0 C1.18771723 3.42943519 0.80226223 5.37784675 -0.4375 8.75 C-0.86869141 9.94882813 -0.86869141 9.94882813 -1.30859375 11.171875 C-1.65083984 12.07679688 -1.65083984 12.07679688 -2 13 C-2.33 13 -2.66 13 -3 13 C-2.52060632 8.28596212 -2.03165952 4.33420699 0 0 Z " fill="#748EC2" transform="translate(17,149)"/>
<path d="M0 0 C0 2.87137415 -0.27113266 5.2303041 -1 8 C-1.99 8.495 -1.99 8.495 -3 9 C-3 8.34 -3 7.68 -3 7 C-3.99 6.67 -4.98 6.34 -6 6 C-4.02 4.02 -2.04 2.04 0 0 Z " fill="#4575B4" transform="translate(95,102)"/>
<path d="M0 0 C4.86896303 0.59619955 9.32790951 1.56976822 14 3 C14 3.33 14 3.66 14 4 C8.34605369 4.34615998 4.96993194 3.43425238 0 1 C0 0.67 0 0.34 0 0 Z " fill="#7ABBDD" transform="translate(295,6)"/>
<path d="M0 0 C1.32 0.66 2.64 1.32 4 2 C2.68 3.32 1.36 4.64 0 6 C-0.99 5.01 -1.98 4.02 -3 3 C-2.01 2.01 -1.02 1.02 0 0 Z " fill="#315EB3" transform="translate(204,298)"/>
<path d="M0 0 C0.66 0.33 1.32 0.66 2 1 C1.6875 2.875 1.6875 2.875 1 5 C0.01 5.66 -0.98 6.32 -2 7 C-2.6875 5.1875 -2.6875 5.1875 -3 3 C-1.5625 1.25 -1.5625 1.25 0 0 Z " fill="#4177BE" transform="translate(363,374)"/>
<path d="M0 0 C1.5625 1.1875 1.5625 1.1875 3 3 C2.6875 5.6875 2.6875 5.6875 2 8 C0.4375 6.8125 0.4375 6.8125 -1 5 C-0.6875 2.3125 -0.6875 2.3125 0 0 Z " fill="#2C3293" transform="translate(59,318)"/>
<path d="M0 0 C0 4.29 0 8.58 0 13 C-0.33 13 -0.66 13 -1 13 C-1.66 9.04 -2.32 5.08 -3 1 C-1 0 -1 0 0 0 Z " fill="#4492CD" transform="translate(440,253)"/>
<path d="M0 0 C2.31 0 4.62 0 7 0 C7 0.66 7 1.32 7 2 C4.29120665 3.35439668 1.99066732 3.06501451 -1 3 C-0.67 2.01 -0.34 1.02 0 0 Z " fill="#2A51A9" transform="translate(276,418)"/>
<path d="M0 0 C3.26954202 0.56371414 4.82575883 1.49962266 7 4 C6.67 4.99 6.34 5.98 6 7 C3.95880212 5.38405168 1.95927063 3.7143618 0 2 C0 1.34 0 0.68 0 0 Z " fill="#3A6BB6" transform="translate(245,305)"/>
<path d="M0 0 C2.125 0.375 2.125 0.375 4 1 C3.360625 1.4125 2.72125 1.825 2.0625 2.25 C-0.20990931 4.17810487 -0.60196439 5.11424181 -1 8 C-1.66 8 -2.32 8 -3 8 C-2.25 2.25 -2.25 2.25 0 0 Z " fill="#3F87C0" transform="translate(222,146)"/>
<path d="M0 0 C0.33 0.66 0.66 1.32 1 2 C1.99 2.33 2.98 2.66 4 3 C1.69 4.32 -0.62 5.64 -3 7 C-3 3 -3 3 -1.5 1.25 C-1.005 0.8375 -0.51 0.425 0 0 Z " fill="#4481C0" transform="translate(125,76)"/>
<path d="M0 0 C1.32 0.33 2.64 0.66 4 1 C3.67 3.97 3.34 6.94 3 10 C2.67 10 2.34 10 2 10 C2 8.02 2 6.04 2 4 C1.34 4 0.68 4 0 4 C0 2.68 0 1.36 0 0 Z " fill="#599FD1" transform="translate(434,272)"/>
<path d="M0 0 C0.66 0.66 1.32 1.32 2 2 C1.625 5.625 1.625 5.625 1 9 C-1.14809171 5.77786243 -1.29386153 4.72224599 -1 1 C-0.67 0.67 -0.34 0.34 0 0 Z " fill="#3592CF" transform="translate(420,193)"/>
<path d="M0 0 C1.1875 1.625 1.1875 1.625 2 4 C0.625 7.25 0.625 7.25 -1 10 C-2.1875 8.375 -2.1875 8.375 -3 6 C-1.625 2.75 -1.625 2.75 0 0 Z " fill="#509AC9" transform="translate(232,139)"/>
<path d="M0 0 C2.33944736 0.28730055 4.6739143 0.61936779 7 1 C3.375 4 3.375 4 0 4 C-0.33 3.01 -0.66 2.02 -1 1 C-0.67 0.67 -0.34 0.34 0 0 Z " fill="#4FA5D5" transform="translate(287,45)"/>
<path d="M0 0 C1.98 0 3.96 0 6 0 C5.67 0.99 5.34 1.98 5 3 C3.02 3 1.04 3 -1 3 C-0.67 2.01 -0.34 1.02 0 0 Z " fill="#2083C7" transform="translate(212,42)"/>
<path d="M0 0 C2.475 0.99 2.475 0.99 5 2 C5 2.99 5 3.98 5 5 C2.5625 4.625 2.5625 4.625 0 4 C-0.33 3.34 -0.66 2.68 -1 2 C-0.67 1.34 -0.34 0.68 0 0 Z " fill="#293D98" transform="translate(148,397)"/>
<path d="M0 0 C0.99 0.33 1.98 0.66 3 1 C3.75 2.9375 3.75 2.9375 4 5 C3.67 5.66 3.34 6.32 3 7 C2.34 7 1.68 7 1 7 C0.67 4.69 0.34 2.38 0 0 Z " fill="#4551A3" transform="translate(21,334)"/>
<path d="M0 0 C1.32 0.33 2.64 0.66 4 1 C4 2.32 4 3.64 4 5 C3.01 5 2.02 5 1 5 C0.67 5.99 0.34 6.98 0 8 C0 5.36 0 2.72 0 0 Z " fill="#465EAD" transform="translate(41,214)"/>
<path d="M0 0 C0.33 0.99 0.66 1.98 1 3 C1.66 3.33 2.32 3.66 3 4 C2.01 4.99 1.02 5.98 0 7 C-0.99 6.34 -1.98 5.68 -3 5 C-2.01 3.35 -1.02 1.7 0 0 Z " fill="#3F6CB4" transform="translate(84,138)"/>
<path d="M0 0 C1.65 1.65 3.3 3.3 5 5 C3.68 5.33 2.36 5.66 1 6 C-0.0625 4.125 -0.0625 4.125 -1 2 C-0.67 1.34 -0.34 0.68 0 0 Z " fill="#42A2D8" transform="translate(375,111)"/>
<path d="M0 0 C1.65 0 3.3 0 5 0 C5 0.99 5 1.98 5 3 C3.35 3.33 1.7 3.66 0 4 C0 2.68 0 1.36 0 0 Z " fill="#2B7FC3" transform="translate(173,51)"/>
<path d="M0 0 C1.98 0.495 1.98 0.495 4 1 C3.67 1.66 3.34 2.32 3 3 C3.99 3.33 4.98 3.66 6 4 C3.69 4 1.38 4 -1 4 C-0.67 2.68 -0.34 1.36 0 0 Z " fill="#4999D0" transform="translate(208,42)"/>
<path d="M0 0 C2.31 0 4.62 0 7 0 C5.8125 1.5625 5.8125 1.5625 4 3 C1.3125 2.6875 1.3125 2.6875 -1 2 C-0.67 1.34 -0.34 0.68 0 0 Z " fill="#2383C5" transform="translate(221,41)"/>
<path d="M0 0 C1.9375 0.6875 1.9375 0.6875 2.9375 2.6875 C0.6275 2.6875 -1.6825 2.6875 -4.0625 2.6875 C-4.0625 2.0275 -4.0625 1.3675 -4.0625 0.6875 C-2.0625 -0.3125 -2.0625 -0.3125 0 0 Z " fill="#384D9F" transform="translate(201.0625,432.3125)"/>
<path d="M0 0 C2 1 2 1 2.6875 2.75 C3.05449975 5.39239823 2.64331769 7.42672922 2 10 C-0.4294516 6.3558226 -0.16179575 4.28758728 0 0 Z " fill="#4F5CA7" transform="translate(9,299)"/>
<path d="M0 0 C0.66 0 1.32 0 2 0 C2 1.98 2 3.96 2 6 C1.01 6.33 0.02 6.66 -1 7 C-0.67 4.69 -0.34 2.38 0 0 Z " fill="#2547A5" transform="translate(60,194)"/>
<path d="M0 0 C0.99 0.33 1.98 0.66 3 1 C3.33 2.98 3.66 4.96 4 7 C2 5.1875 2 5.1875 0 3 C0 2.01 0 1.02 0 0 Z " fill="#3690CC" transform="translate(247,131)"/>
<path d="M0 0 C-0.66 0 -1.32 0 -2 0 C-2 0.66 -2 1.32 -2 2 C-1.34 2.33 -0.68 2.66 0 3 C-1.65 3.33 -3.3 3.66 -5 4 C-4.67 3.01 -4.34 2.02 -4 1 C-4.99 0.67 -5.98 0.34 -7 0 C-3.86650268 -1.04449911 -3.01031744 -0.93423645 0 0 Z " fill="#5E9ECF" transform="translate(189,48)"/>
</svg>
